<svg width="20" height="19" viewBox="0 0 20 19" fill="none" xmlns="http://www.w3.org/2000/svg">
<path fill-rule="evenodd" clip-rule="evenodd" d="M17.8977 2.5H4.08514L2.90497 0.384597C2.7725 0.147154 2.5219 0 2.25 0H0.75C0.335786 0 0 0.335786 0 0.75C0 1.16421 0.335786 1.5 0.75 1.5H1.8096L2.97429 3.58765L5.66037 9.53088L5.66312 9.53695L5.89971 10.0604L3.20287 12.937C3.00895 13.1439 2.94825 13.4424 3.04599 13.7085C3.14372 13.9747 3.38317 14.163 3.66486 14.1952L6.12299 14.4761C9.19767 14.8275 12.3024 14.8275 15.377 14.4761L17.8352 14.1952C18.2467 14.1481 18.5422 13.7764 18.4952 13.3648C18.4481 12.9533 18.0764 12.6578 17.6649 12.7049L15.2067 12.9858C12.2452 13.3242 9.25481 13.3242 6.29331 12.9858L5.31779 12.8743L7.29717 10.763C7.31632 10.7425 7.3341 10.7213 7.35052 10.6994L8.10334 10.7974C9.15826 10.9347 10.2246 10.9616 11.2851 10.8777C13.7586 10.6821 16.051 9.50509 17.6515 7.60907L18.2295 6.92425C18.249 6.90125 18.267 6.87711 18.2835 6.85194L19.3609 5.21009C20.1245 4.04633 19.2897 2.5 17.8977 2.5ZM7.40627 9.19405C7.24086 9.17253 7.09823 9.06745 7.02858 8.91604L7.02725 8.91311L4.80674 4H17.8977C18.0966 4 18.2158 4.2209 18.1067 4.38716L17.0542 5.99123L16.5052 6.64152C15.1632 8.23139 13.2409 9.21832 11.1669 9.38236C10.2103 9.45802 9.24842 9.43374 8.29688 9.30993L7.40627 9.19405Z" fill="#6366F1"/>
<path d="M5.25 15.75C4.42157 15.75 3.75 16.4216 3.75 17.25C3.75 18.0784 4.42157 18.75 5.25 18.75C6.07843 18.75 6.75 18.0784 6.75 17.25C6.75 16.4216 6.07843 15.75 5.25 15.75Z" fill="#6366F1"/>
<path d="M14.75 17.25C14.75 16.4216 15.4216 15.75 16.25 15.75C17.0784 15.75 17.75 16.4216 17.75 17.25C17.75 18.0784 17.0784 18.75 16.25 18.75C15.4216 18.75 14.75 18.0784 14.75 17.25Z" fill="#6366F1"/>
</svg>
