<svg width="40" height="40" viewBox="0 0 40 40" fill="none" xmlns="http://www.w3.org/2000/svg">
<circle cx="20" cy="20" r="20" fill="#F7F7F7"/>
<g clip-path="url(#clip0_1114_7053)">
<path d="M27.5 12.5H19.625V18.125H27.5V12.5Z" fill="#E2E7F6"/>
<path d="M26.75 15.875V12.5H19.625V16.625H26C26.1989 16.625 26.3897 16.546 26.5303 16.4053C26.671 16.2647 26.75 16.0739 26.75 15.875Z" fill="#F2F2F2"/>
<path d="M12.125 17.375V10.625C12.125 10.1277 12.3225 9.65081 12.6742 9.29917C13.0258 8.94754 13.5027 8.75 14 8.75H15.875V10.25H14.75C14.4516 10.25 14.1655 10.3685 13.9545 10.5795C13.7435 10.7905 13.625 11.0766 13.625 11.375V17.375" fill="#CCCCCC"/>
<path d="M28.25 21.5V18.5C28.25 18.3011 28.171 18.1103 28.0303 17.9697C27.8897 17.829 27.6989 17.75 27.5 17.75H18.8405C18.7335 17.75 18.6278 17.7728 18.5304 17.817C18.433 17.8611 18.3462 17.9256 18.2758 18.0061L15.875 20.75H9.5C9.30109 20.75 9.11032 20.829 8.96967 20.9697C8.82902 21.1103 8.75 21.3011 8.75 21.5V27.125C8.75 27.3239 8.82902 27.5147 8.96967 27.6553C9.11032 27.796 9.30109 27.875 9.5 27.875H28.25V21.5Z" fill="#F0AE42"/>
<path d="M15.125 26.75H26V17.75H18.8405C18.7335 17.75 18.6278 17.7728 18.5304 17.817C18.433 17.8611 18.3462 17.9256 18.2758 18.0061L15.875 20.75H9.5C9.30109 20.75 9.11032 20.829 8.96967 20.9697C8.82902 21.1103 8.75 21.3011 8.75 21.5V26.75H15.125Z" fill="#F6B940"/>
<path d="M31.25 26.75V24.5H30.3643C30.2446 23.9945 30.0443 23.5116 29.771 23.0698L30.398 22.4431L28.8069 20.852L28.1799 21.479C27.7382 21.2057 27.2554 21.0054 26.75 20.8857V20H24.5V20.8857C23.9946 21.0054 23.5118 21.2057 23.0701 21.479L22.4431 20.852L20.852 22.4431L21.479 23.0698C21.2057 23.5116 21.0054 23.9945 20.8857 24.5H20V26.75H20.8857C21.0054 27.2555 21.2057 27.7384 21.479 28.1803L20.852 28.8069L22.4431 30.398L23.0698 29.771C23.5116 30.0443 23.9945 30.2446 24.5 30.3643V31.25H26.75V30.3643C27.2555 30.2446 27.7384 30.0443 28.1803 29.771L28.8069 30.398L30.398 28.8069L29.771 28.1803C30.0443 27.7384 30.2446 27.2555 30.3643 26.75H31.25Z" fill="#686868"/>
<path d="M25.625 28.25C27.0747 28.25 28.25 27.0747 28.25 25.625C28.25 24.1753 27.0747 23 25.625 23C24.1753 23 23 24.1753 23 25.625C23 27.0747 24.1753 28.25 25.625 28.25Z" fill="#CCCCCC"/>
<path d="M25.625 26.75C26.2463 26.75 26.75 26.2463 26.75 25.625C26.75 25.0037 26.2463 24.5 25.625 24.5C25.0037 24.5 24.5 25.0037 24.5 25.625C24.5 26.2463 25.0037 26.75 25.625 26.75Z" fill="#939393"/>
<path d="M17.75 11H28.25V12.5H17.75V11Z" fill="#F4A93C"/>
<path d="M17.75 11H26.75V11.75H17.75V11Z" fill="#F6B940"/>
<path d="M14.375 31.25C16.239 31.25 17.75 29.739 17.75 27.875C17.75 26.011 16.239 24.5 14.375 24.5C12.511 24.5 11 26.011 11 27.875C11 29.739 12.511 31.25 14.375 31.25Z" fill="#686868"/>
<path d="M14.375 29.375C15.2034 29.375 15.875 28.7034 15.875 27.875C15.875 27.0466 15.2034 26.375 14.375 26.375C13.5466 26.375 12.875 27.0466 12.875 27.875C12.875 28.7034 13.5466 29.375 14.375 29.375Z" fill="#939393"/>
<path d="M11.375 20.75V17.75C11.375 17.5511 11.454 17.3603 11.5947 17.2197C11.7353 17.079 11.9261 17 12.125 17H13.625C13.8239 17 14.0147 17.079 14.1553 17.2197C14.296 17.3603 14.375 17.5511 14.375 17.75V20.75" fill="#686868"/>
<path d="M12.125 21.875H16.25V22.625H12.125V21.875Z" fill="#FCE797"/>
<path d="M18.5 19.25H20.375V20H18.5V19.25Z" fill="#FCE797"/>
<path d="M18.5 20.75H20.375V21.5H18.5V20.75Z" fill="#FCE797"/>
<path d="M13.625 18.5V17H12.125C11.9261 17 11.7353 17.079 11.5947 17.2197C11.454 17.3603 11.375 17.5511 11.375 17.75V19.625H12.5C12.7984 19.625 13.0845 19.5065 13.2955 19.2955C13.5065 19.0845 13.625 18.7984 13.625 18.5Z" fill="#939393"/>
</g>
<defs>
<clipPath id="clip0_1114_7053">
<rect width="24" height="24" fill="white" transform="translate(8 8)"/>
</clipPath>
</defs>
</svg>
