<svg width="40" height="40" viewBox="0 0 40 40" fill="none" xmlns="http://www.w3.org/2000/svg">
<circle cx="20" cy="20" r="20" fill="#F7F7F7"/>
<g clip-path="url(#clip0_1114_7146)">
<path d="M28.8069 10.1104C27.1981 8.84568 23.7557 8.04977 23.6097 8.01678C23.3405 7.95548 23.0725 8.12401 23.0113 8.39322C23.003 8.42945 22.9989 8.46652 22.9988 8.50369C22.9988 9.17858 21.614 10.0034 19.9993 10.0034C18.3846 10.0034 16.9998 9.17858 16.9998 8.50369C16.9999 8.35155 16.9307 8.20767 16.8118 8.11276C16.6942 8.01504 16.5377 7.97802 16.3888 8.01279C16.2428 8.04579 12.8014 8.84268 11.1897 10.1065C9.52494 11.4203 9.05102 17.7513 9.00101 18.4682C8.98732 18.6719 9.09896 18.8635 9.28296 18.9521C10.4576 19.496 11.7133 19.8439 13.0004 19.9819V30.5002C13.0007 30.6851 13.103 30.8547 13.2663 30.9412C13.3473 30.9852 15.31 32 19.9993 32C24.6886 32 26.6512 30.9852 26.7322 30.9412C26.8956 30.8547 26.9979 30.6851 26.9982 30.5002V19.9819C28.2849 19.8438 29.5403 19.4959 30.7146 18.9521C30.899 18.8638 31.0111 18.6721 30.9976 18.4682C30.9476 17.7513 30.4736 11.4203 28.8069 10.1104Z" fill="#03A9F4"/>
<path d="M13.5003 20.0018C13.2242 20.0018 13.0004 19.778 13.0004 19.5019V16.5023C13.0412 15.5467 12.7383 14.6081 12.1465 13.8567C11.9547 13.6582 11.9602 13.3417 12.1588 13.1498C12.3525 12.9627 12.6596 12.9627 12.8533 13.1498C13.6414 14.0846 14.0506 15.2807 14.0001 16.5023V19.5019C14.0002 19.778 13.7764 20.0018 13.5003 20.0018Z" fill="#0288D1"/>
<path d="M26.4982 20.0019C26.2221 20.0019 25.9983 19.778 25.9983 19.502V16.5024C25.9473 15.2806 26.3561 14.0841 27.1441 13.149C27.3359 12.9504 27.6524 12.9448 27.851 13.1367C28.0496 13.3285 28.055 13.645 27.8633 13.8436C27.8592 13.8478 27.8552 13.8518 27.851 13.8559C27.2593 14.6077 26.9567 15.5467 26.9981 16.5024V19.502C26.9981 19.778 26.7743 20.0019 26.4982 20.0019Z" fill="#0288D1"/>
<path d="M23.8167 8.11866C23.7024 8.02287 23.551 7.98392 23.4047 8.0127C22.2798 8.2408 21.1428 8.4047 19.9993 8.50363C18.8557 8.40474 17.7188 8.24085 16.5938 8.0127C16.4476 7.98406 16.2962 8.02301 16.1819 8.11866C16.0669 8.21343 16.0002 8.35459 15.9999 8.50359C15.9999 10.0033 18.0676 11.0032 19.9993 11.0032C21.931 11.0032 23.9986 10.0033 23.9986 8.50359C23.9984 8.35459 23.9317 8.21343 23.8167 8.11866Z" fill="#1976D2"/>
</g>
<defs>
<clipPath id="clip0_1114_7146">
<rect width="24" height="24" fill="white" transform="translate(8 8)"/>
</clipPath>
</defs>
</svg>
