<svg width="40" height="40" viewBox="0 0 40 40" fill="none" xmlns="http://www.w3.org/2000/svg">
<circle cx="20" cy="20" r="20" fill="#F7F7F7"/>
<path d="M21.1381 22.1723C20.9328 21.8747 20.8447 21.5118 20.8906 21.1532C20.8987 21.091 20.9027 21.0284 20.9028 20.9657C20.9028 20.6688 20.8124 20.3789 20.6436 20.1346L14.4603 11.1745C14.3474 11.0103 14.2032 10.8699 14.0361 10.7614C13.8689 10.6529 13.682 10.5784 13.486 10.5422C13.2901 10.5059 13.0889 10.5086 12.894 10.5501C12.699 10.5916 12.5142 10.6711 12.35 10.784C12.1858 10.8969 12.0454 11.0411 11.937 11.2083C11.8285 11.3754 11.754 11.5623 11.7177 11.7583C11.6815 11.9542 11.6841 12.1554 11.7256 12.3504C11.7671 12.5453 11.8466 12.7301 11.9595 12.8943L15.9959 18.7434L19.9419 23.5171C20.082 22.972 20.6984 22.5965 21.425 22.5881L21.1381 22.1723Z" fill="#C79A83"/>
<path d="M17.4022 18.7432L13.3658 12.8942C13.2526 12.7303 13.1729 12.5457 13.1312 12.351C13.0895 12.1563 13.0866 11.9553 13.1228 11.7594C13.1589 11.5636 13.2334 11.3768 13.3418 11.2098C13.4503 11.0428 13.5906 10.8989 13.7548 10.7862C13.8057 10.7514 13.8587 10.7196 13.9134 10.6912C13.6132 10.5333 13.2689 10.4806 12.9352 10.5415C12.6016 10.6024 12.2981 10.7733 12.0731 11.0271C11.8481 11.2808 11.7146 11.6026 11.694 11.9411C11.6734 12.2796 11.7669 12.6152 11.9595 12.8943L15.9959 18.7434L19.9419 23.5171C20.0314 23.1687 20.3157 22.8898 20.6988 22.7315L17.4022 18.7432Z" fill="#A07C6B"/>
<path d="M20.6145 30.8313C21.6223 30.8313 22.4394 30.0143 22.4394 29.0065C22.4394 27.9987 21.6223 27.1816 20.6145 27.1816C19.6067 27.1816 18.7897 27.9987 18.7897 29.0065C18.7897 30.0143 19.6067 30.8313 20.6145 30.8313Z" fill="#F2CD6D"/>
<path d="M22.8017 27.3257L25.3395 28.7001L24.2619 29.4412L22.8017 27.3257Z" fill="#AF826E"/>
<path d="M25.3396 28.7002L26.4814 29.3185C26.416 29.5492 26.2719 29.7497 26.0741 29.8852L25.3344 30.3938C25.1091 30.5487 24.8316 30.6079 24.5627 30.5584C24.2938 30.5089 24.0555 30.3548 23.9 30.1299C23.8581 30.0698 23.8357 29.9983 23.8358 29.925C23.8357 29.8663 23.85 29.8083 23.8774 29.7563C23.9047 29.7043 23.9444 29.6597 23.9928 29.6264L24.2619 29.4413L25.3396 28.7002Z" fill="#C79A83"/>
<path d="M24.8103 20.4537V20.4541L23.7059 22.8457L23.082 22.886L22.2575 22.7097L23.5644 19.8804C23.9392 20.1495 24.3621 20.3441 24.8103 20.4537Z" fill="#799091"/>
<path d="M21.9369 22.6415L21.0547 26.7543L21.0346 26.7501C20.8672 26.7145 20.0525 26.7548 19.6592 26.0906C19.9484 25.2655 20.0451 24.3853 19.9419 23.5171C20.0821 22.972 20.6985 22.5965 21.425 22.5881C21.5903 22.586 21.7552 22.6025 21.9167 22.6373L21.9369 22.6415Z" fill="#4689D3"/>
<path d="M23.082 22.8863L22.7464 24.4524L22.5228 25.4939L22.1998 26.9996L21.0547 26.7544L21.9369 22.6416L22.2575 22.71L23.082 22.8863Z" fill="#5FA8ED"/>
<path d="M29.2292 29.1087C29.2469 29.1337 29.2583 29.1626 29.2625 29.193C29.2666 29.2234 29.2632 29.2544 29.2528 29.2832C29.2423 29.3121 29.225 29.3379 29.2024 29.3586C29.1798 29.3793 29.1525 29.3942 29.1228 29.4021L27.9008 29.7312C27.6193 29.8071 27.3194 29.772 27.0631 29.6332L26.4814 29.3182L25.3395 28.6999L22.8017 27.3255V27.3251L22.1998 26.9993L22.5228 25.4937L27.8422 27.4221C28.0145 27.4854 28.1637 27.5992 28.2701 27.7488L29.2292 29.1087Z" fill="#C1D1E5"/>
<path d="M30.207 26.3229C30.2307 26.3441 30.2486 26.3709 30.2593 26.4007C30.2699 26.4306 30.2729 26.4627 30.268 26.494C30.2631 26.5254 30.2505 26.555 30.2313 26.5802C30.212 26.6054 30.1868 26.6254 30.1578 26.6384L28.0485 27.5295C27.9847 27.4848 27.9154 27.4488 27.8422 27.4221L22.5228 25.4937L22.7464 24.4521L28.3742 24.8656C28.4782 24.8731 28.5828 24.8624 28.6831 24.8342L30.207 26.3229Z" fill="#D4E1F4"/>
<path d="M30.3814 23.491C30.4062 23.5094 30.4262 23.5336 30.4396 23.5615C30.4531 23.5894 30.4595 23.6201 30.4584 23.651C30.4573 23.6819 30.4487 23.7121 30.4333 23.7389C30.4179 23.7658 30.3962 23.7885 30.3701 23.8051L28.9236 24.7271C28.8492 24.7746 28.7681 24.8108 28.6831 24.8344C28.5827 24.8627 28.4782 24.8733 28.3742 24.8658L22.7464 24.4524L23.082 22.8863L23.7059 22.846L28.6166 22.5291C28.8889 22.5085 29.1596 22.5866 29.3792 22.749L30.3814 23.491Z" fill="#C1D1E5"/>
<path d="M12.4883 25.9523L10.1947 28.2417C9.28222 27.3343 8.70422 26.1444 8.55499 24.8662C9.24858 24.6922 9.97543 24.7007 10.6647 24.8911C11.354 25.0814 11.9823 25.447 12.4883 25.9523Z" fill="#EA8E60"/>
<path d="M12.4883 25.9521C12.9942 26.4562 13.3604 27.0831 13.5511 27.7713C13.7418 28.4594 13.7505 29.1854 13.5763 29.8779C12.2968 29.7295 11.105 29.1528 10.1947 28.2415L12.4883 25.9521Z" fill="#D8825B"/>
<path d="M14.2489 24.1948L18.3027 28.2415C17.6898 28.8539 16.9461 29.3193 16.1274 29.6027C15.3088 29.8861 14.4365 29.9803 13.5762 29.878C13.7505 29.1854 13.7418 28.4595 13.5511 27.7713C13.3604 27.0831 12.9941 26.4562 12.4883 25.9522L14.2489 24.1948Z" fill="#CE7B51"/>
<path d="M14.2489 24.1947L12.4883 25.952C11.9823 25.4467 11.354 25.0811 10.6647 24.8907C9.97544 24.7004 9.24859 24.6919 8.555 24.8659C8.45284 24.0067 8.54736 23.1354 8.83142 22.3181C9.11548 21.5007 9.58166 20.7586 10.1947 20.1479L14.2489 24.1947Z" fill="#DF8A59"/>
<path d="M19.9419 23.5172C20.045 24.3775 19.951 25.2499 19.667 26.0685C19.383 26.887 18.9164 27.6302 18.3027 28.2417L14.2489 24.195L16.017 22.4302C16.522 22.9343 17.1486 23.2993 17.8362 23.49C18.5238 23.6806 19.249 23.6903 19.9414 23.5181C19.9414 23.5177 19.9414 23.5177 19.9419 23.5172Z" fill="#BA6847"/>
<path d="M16.017 22.4302L14.2489 24.1951L10.1947 20.1483C10.8081 19.5351 11.5528 19.0693 12.3725 18.7858C13.1922 18.5023 14.0656 18.4087 14.9267 18.5119V18.5124C14.7543 19.204 14.7641 19.9284 14.9552 20.6151C15.1463 21.3017 15.5121 21.9271 16.017 22.4302Z" fill="#CC764C"/>
<path d="M18.3027 20.1481L16.017 22.43C15.5121 21.9269 15.1463 21.3015 14.9552 20.6149C14.7641 19.9282 14.7543 19.2038 14.9267 18.5122V18.5117C16.2039 18.6626 17.393 19.239 18.3027 20.1481Z" fill="#BF6743"/>
<path d="M19.9419 23.5169C19.9414 23.5173 19.9414 23.5173 19.9414 23.5178C19.249 23.6899 18.5238 23.6802 17.8362 23.4896C17.1486 23.299 16.522 22.9339 16.017 22.4298L18.3027 20.1479C19.2132 21.054 19.7909 22.2412 19.9419 23.5169Z" fill="#AD5A3D"/>
<path d="M9.95309 24.7611C9.48447 24.7169 9.01175 24.7524 8.55499 24.8661C8.70422 26.1443 9.28222 27.3341 10.1947 28.2416L10.9596 27.478C10.4158 26.7037 10.0736 25.806 9.96406 24.8661C9.95984 24.8312 9.95656 24.7961 9.95309 24.7611Z" fill="#C17A5B"/>
<path d="M14.9305 18.5191C14.931 18.5168 14.9375 18.5145 14.9375 18.5121V18.5116C14.0755 18.4081 13.2012 18.5016 12.3806 18.785C11.56 19.0685 10.8144 19.5345 10.2001 20.1481L10.9645 20.9137C11.1572 20.6403 11.3733 20.3841 11.6104 20.1481C12.5061 19.2523 13.6739 18.6794 14.9305 18.5191Z" fill="#AA6549"/>
<path d="M10.9597 27.4781L10.1947 28.2416C11.105 29.1529 12.2968 29.7296 13.5763 29.878C13.6031 29.771 13.625 29.663 13.6431 29.5546C12.5601 29.1481 11.6249 28.4244 10.9597 27.478V27.4781Z" fill="#B26B4F"/>
<path d="M10.9618 20.9136L10.1947 20.1479C9.58166 20.7586 9.11548 21.5007 8.83142 22.3181C8.54736 23.1354 8.45284 24.0067 8.555 24.8659C9.01176 24.7522 9.48448 24.7167 9.9531 24.761C9.81743 23.3991 10.1754 22.0338 10.9618 20.9136Z" fill="#B27252"/>
<path d="M30.2443 15.0084L30.4847 14.486L29.4106 13.9918L29.8547 13.0302L30.168 13.1743L30.4084 12.652L30.0957 12.5081L30.2437 12.1875L29.8672 11.6095L29.5733 12.2678L28.397 11.7266L28.8337 10.7808L28.3117 10.5397L27.8746 11.4862L26.6985 10.945L26.9486 10.3833H26.3242L26.1758 10.7048L25.8641 10.5613L25.6237 11.0837L25.9348 11.2268L25.4908 12.1884L24.4173 11.6944L24.177 12.2169L25.2498 12.7104L24.8057 13.672L23.4959 13.0693L23.2555 13.5918L24.5646 14.1941L24.1206 15.1557L22.9906 14.6358L22.7503 15.1582L23.88 15.6779L23.4359 16.6395L22.9442 16.4133L22.7039 16.9357L23.1948 17.1616L22.9328 17.7291L23.4548 17.9702L23.7173 17.4019L24.8939 17.9432L24.3431 19.136L24.8652 19.377L25.4163 18.1835L26.5926 18.7247L26.3301 19.2933L26.8522 19.5344L27.1151 18.9651L27.6081 19.1919L27.8484 18.6695L27.3562 18.443L27.8002 17.4813L28.944 18.0077L29.1844 17.4853L28.0411 16.9593L28.4844 15.9976L29.7942 16.6002L30.0345 16.0779L28.7254 15.4756L29.1695 14.5139L30.2443 15.0084ZM29.3323 12.7898L28.8882 13.7516L27.7117 13.2104L28.1557 12.2488L29.3323 12.7898ZM26.4572 11.4671L27.6337 12.0083L27.1897 12.9699L26.0132 12.4287L26.4572 11.4671ZM25.7721 12.9508L26.9487 13.492L26.5047 14.4536L25.3281 13.9124L25.7721 12.9508ZM25.087 14.4345L26.2635 14.9757L25.8195 15.9373L24.643 15.3962L25.087 14.4345ZM23.9579 16.8798L24.4019 15.9182L25.5781 16.4594L25.1341 17.4211L23.9579 16.8798ZM26.8329 18.2027L25.6564 17.6614L26.1004 16.6998L27.277 17.241L26.8329 18.2027ZM27.5181 16.7188L26.3415 16.1776L26.7855 15.216L27.9621 15.7572L27.5181 16.7188ZM28.2031 15.2352L27.0266 14.694L27.4706 13.7323L28.6472 14.2736L28.2031 15.2352Z" fill="#D4E1F4"/>
<path d="M12.839 12.4354C12.7927 12.4355 12.747 12.4241 12.7061 12.4022C12.6652 12.3803 12.6303 12.3486 12.6047 12.31L12.5511 12.2296C12.53 12.1988 12.5152 12.1642 12.5076 12.1277C12.5 12.0912 12.4997 12.0536 12.5068 12.017C12.5139 11.9804 12.5282 11.9455 12.5488 11.9145C12.5695 11.8835 12.5961 11.8569 12.6271 11.8362C12.6581 11.8155 12.693 11.8013 12.7296 11.7942C12.7662 11.7871 12.8038 11.7874 12.8403 11.795C12.8768 11.8026 12.9114 11.8174 12.9422 11.8385C12.9729 11.8596 12.9991 11.8866 13.0193 11.9179L13.0729 11.9983C13.1011 12.0407 13.1173 12.0899 13.1197 12.1407C13.1222 12.1915 13.1108 12.242 13.0868 12.2869C13.0628 12.3317 13.0271 12.3692 12.9834 12.3954C12.9398 12.4216 12.8899 12.4354 12.839 12.4354Z" fill="#F4F8FC"/>
<path d="M15.3189 16.1603C15.2725 16.1603 15.2268 16.1489 15.1859 16.127C15.145 16.1052 15.1102 16.0735 15.0845 16.0348L13.0799 13.0234C13.0395 12.9613 13.0253 12.8858 13.0402 12.8133C13.0552 12.7408 13.0982 12.6771 13.1598 12.636C13.2214 12.595 13.2968 12.5799 13.3695 12.5941C13.4422 12.6082 13.5063 12.6505 13.5481 12.7117L15.5527 15.7232C15.5809 15.7655 15.5971 15.8147 15.5995 15.8655C15.602 15.9163 15.5906 15.9668 15.5666 16.0117C15.5426 16.0565 15.5069 16.094 15.4633 16.1202C15.4197 16.1464 15.3698 16.1602 15.3189 16.1603Z" fill="#F4F8FC"/>
<path d="M30.3284 14.6581C30.4144 14.0605 30.3893 13.4522 30.2544 12.8637C30.1869 12.5773 30.0869 12.2996 29.9563 12.0359C29.6511 11.4256 29.1856 10.9405 28.5772 10.6601C28.5767 10.6601 28.5767 10.6597 28.5763 10.6597C27.9674 10.3798 27.2952 10.3419 26.6324 10.5073C26.3472 10.5794 26.0712 10.6838 25.8097 10.8186H25.8092C25.2736 11.0982 24.7941 11.474 24.3945 11.9272C24.0338 12.3321 23.7308 12.785 23.4941 13.273C23.4744 13.3123 23.4556 13.3526 23.4369 13.393C23.2286 13.8421 23.0771 14.3154 22.9859 14.802C22.8753 15.3763 22.8642 15.9654 22.9531 16.5434C23.0147 16.9426 23.1366 17.3302 23.3145 17.6928C23.6197 18.3031 24.0852 18.7883 24.6936 19.0686C24.6941 19.0686 24.6941 19.069 24.6945 19.069C25.3025 19.3489 25.9742 19.3873 26.6375 19.2228V19.2223C27.0298 19.1224 27.4046 18.9632 27.7489 18.7503H27.7494C28.248 18.4416 28.6901 18.0496 29.0563 17.5915C29.3667 17.207 29.6281 16.7853 29.8344 16.3362C29.8531 16.2959 29.8709 16.2556 29.8883 16.2153C30.1062 15.7191 30.2544 15.195 30.3284 14.6581ZM29.1116 9.5028C31.4136 10.5617 32.1711 13.8209 30.8038 16.7825C29.562 19.4712 26.9952 20.99 24.8103 20.4542V20.4537C24.3621 20.3442 23.9392 20.1496 23.5644 19.8805C21.7363 18.5708 21.2258 15.6359 22.4675 12.9472C23.8349 9.98561 26.8095 8.44389 29.1116 9.5028Z" fill="#A4BFC1"/>
</svg>
