<svg width="40" height="40" viewBox="0 0 40 40" fill="none" xmlns="http://www.w3.org/2000/svg">
<circle cx="20" cy="20" r="20" fill="#F7F7F7"/>
<g clip-path="url(#clip0_1114_7117)">
<path d="M19.3347 23.5629C16.4443 23.5629 14.0928 21.2068 14.0928 18.3108V13.2626C14.0928 10.3666 16.4443 8.0105 19.3347 8.0105C22.2251 8.0105 24.5765 10.3666 24.5765 13.2626V18.3108C24.5765 21.2068 22.2251 23.5629 19.3347 23.5629Z" fill="#DADA3B"/>
<path d="M19.3347 8.0105V23.5629C22.2251 23.5629 24.5766 21.2068 24.5766 18.3108V13.2626C24.5765 10.3666 22.2251 8.0105 19.3347 8.0105Z" fill="#9DBC29"/>
<path d="M19.2993 13.0591C18.9118 13.0591 18.5976 13.3739 18.5976 13.7622V15.9052L18.1299 15.432C17.8572 15.156 17.4129 15.1538 17.1375 15.4271C16.8621 15.7003 16.8598 16.1455 17.1325 16.4214L18.5975 17.904V31.288C18.5975 31.6763 18.9117 31.9911 19.2993 31.9911C19.6868 31.9911 20.001 31.6763 20.001 31.288V13.7622C20.0011 13.3739 19.6869 13.0591 19.2993 13.0591Z" fill="#A34F3E"/>
<path d="M19.3347 13.0615V31.99C19.7057 31.9714 20.0011 31.665 20.0011 31.2886V13.7628C20.0011 13.3865 19.7057 13.0801 19.3347 13.0615Z" fill="#873F2E"/>
<path d="M11.9554 31.9512C11.5678 31.9512 11.2536 31.6364 11.2536 31.248V26.9197C11.2536 26.5314 11.5678 26.2166 11.9554 26.2166C12.3429 26.2166 12.6571 26.5314 12.6571 26.9197V31.248C12.6571 31.6364 12.3429 31.9512 11.9554 31.9512Z" fill="#C86E59"/>
<path d="M11.9554 26.2166V31.9512C12.3429 31.9512 12.6571 31.6364 12.6571 31.248V26.9197C12.6571 26.5313 12.3429 26.2166 11.9554 26.2166Z" fill="#A34F3E"/>
<path d="M11.9554 27.6228C10.8197 27.6228 9.79149 26.8223 9.06001 25.3688C8.40559 24.0683 8.04517 22.3548 8.04517 20.544C8.04517 16.8339 11.2544 12.4391 11.391 12.2538C11.5233 12.0744 11.7328 11.9685 11.9554 11.9685C12.1781 11.9685 12.3875 12.0744 12.5198 12.2538C12.6564 12.4391 15.8656 16.8339 15.8656 20.544C15.8656 22.3548 15.5052 24.0683 14.8507 25.3688C14.1193 26.8223 13.091 27.6228 11.9554 27.6228Z" fill="#DADA3B"/>
<path d="M12.5198 12.2538C12.3875 12.0744 12.178 11.9685 11.9554 11.9685V27.6228C13.091 27.6228 14.1193 26.8223 14.8507 25.3688C15.5052 24.0683 15.8656 22.3548 15.8656 20.544C15.8656 16.8339 12.6564 12.4391 12.5198 12.2538Z" fill="#9DBC29"/>
<path d="M29.3238 14.1616C27.154 14.4615 25.3341 12.4869 25.9017 10.2792C26.1748 9.2167 27.0111 8.37877 28.0715 8.10511C30.2749 7.53643 32.2457 9.35991 31.9464 11.534C31.7587 12.8971 30.6843 13.9736 29.3238 14.1616Z" fill="#FFDD54"/>
<path d="M28.8866 8V14.1915C29.0303 14.1915 29.1762 14.1819 29.3238 14.1616C30.6842 13.9735 31.7586 12.897 31.9463 11.5339C32.2081 9.63288 30.7341 8 28.8866 8Z" fill="#FFB454"/>
<path d="M28.9582 22.4118C28.5706 22.4118 28.2564 22.0969 28.2564 21.7086V17.7761C28.2564 17.3878 28.5706 17.073 28.9582 17.073C29.3457 17.073 29.6599 17.3878 29.6599 17.7761V21.7086C29.6599 22.0969 29.3457 22.4118 28.9582 22.4118Z" fill="#FF405C"/>
<path d="M14.9221 32.0001V22.7468C14.9221 22.6798 14.9507 22.6159 15.0008 22.5715L22.4703 15.9324C22.5132 15.8943 22.5683 15.8733 22.6255 15.8733C22.6828 15.8733 22.7379 15.8943 22.7808 15.9324L30.2503 22.5715C30.3003 22.6159 30.329 22.6798 30.329 22.7468V32.0001H14.9221V32.0001Z" fill="#FFF2DE"/>
<path d="M30.2502 22.5715L22.7807 15.9324C22.7379 15.8943 22.6828 15.8733 22.6255 15.8733V32.0001H30.3289V22.7468C30.3289 22.6798 30.3003 22.6159 30.2502 22.5715Z" fill="#FDE4C3"/>
<path d="M21.0039 31.9999H16.7933V24.6584C16.7933 24.2701 17.1075 23.9553 17.4951 23.9553H20.3021C20.6897 23.9553 21.0039 24.2701 21.0039 24.6584V31.9999Z" fill="#A34F3E"/>
<path d="M27.0398 28.0563H24.6412C24.3671 28.0563 24.1448 27.8337 24.1448 27.559V25.1557C24.1448 24.8811 24.3671 24.6584 24.6412 24.6584H27.0398C27.3139 24.6584 27.5361 24.8811 27.5361 25.1557V27.559C27.5361 27.8337 27.3139 28.0563 27.0398 28.0563Z" fill="#C8FFFF"/>
<path d="M27.5361 28.7594H24.1449C23.7573 28.7594 23.4431 28.4446 23.4431 28.0563V24.6584C23.4431 24.2701 23.7573 23.9553 24.1449 23.9553H27.5361C27.9237 23.9553 28.2379 24.2701 28.2379 24.6584V28.0563C28.2378 28.4446 27.9237 28.7594 27.5361 28.7594ZM24.8466 27.3532H26.8343V25.3616H24.8466V27.3532Z" fill="#A34F3E"/>
<path d="M31.2512 24.4777C31.0856 24.4777 30.9194 24.4193 30.7858 24.3006L22.6255 17.0476L14.4653 24.3006C14.1754 24.5582 13.7319 24.5317 13.4747 24.2412C13.2175 23.9507 13.244 23.5063 13.5339 23.2486L22.1599 15.5817C22.4256 15.3455 22.8255 15.3455 23.0912 15.5817L31.7171 23.2486C32.007 23.5063 32.0336 23.9507 31.7764 24.2412C31.6377 24.3978 31.4449 24.4777 31.2512 24.4777Z" fill="#FF405C"/>
<path d="M31.7171 23.2486L23.0912 15.5817C22.9583 15.4636 22.7919 15.4045 22.6255 15.4045V17.0476L30.7857 24.3005C30.9193 24.4193 31.0856 24.4777 31.2511 24.4777C31.4448 24.4777 31.6377 24.3978 31.7763 24.2411C32.0335 23.9507 32.007 23.5063 31.7171 23.2486Z" fill="#E20059"/>
<path d="M31.2982 32H8.70182C8.31426 31.991 8.00006 31.6762 8.00006 31.2878C8.00006 30.8995 8.31426 30.5847 8.70182 30.5847H31.2982C31.6858 30.5847 32 30.8995 32 31.2878C32 31.6762 31.6858 31.991 31.2982 32Z" fill="#DADA3B"/>
<path d="M31.2982 30.5847H20.0011V32H31.2982C31.6858 31.991 32 31.6762 32 31.2878C32 30.8995 31.6858 30.5847 31.2982 30.5847Z" fill="#9DBC29"/>
</g>
<defs>
<clipPath id="clip0_1114_7117">
<rect width="24" height="24" fill="white" transform="translate(8 8)"/>
</clipPath>
</defs>
</svg>
