<svg width="40" height="40" viewBox="0 0 40 40" fill="none" xmlns="http://www.w3.org/2000/svg">
<circle cx="20" cy="20" r="20" fill="#F7F7F7"/>
<g clip-path="url(#clip0_1114_6976)">
<path d="M19.2564 29.7914L15.6777 30.1568L12.0991 29.7914V27.3579H19.2564V29.7914Z" fill="#7A6D79"/>
<path d="M19.2563 27.3579V29.7917L17.8912 30.0135L17.0867 29.7917V27.3579H19.2563Z" fill="#685E68"/>
<path d="M19.1353 32H10.5538C9.33412 32 8.34534 31.0112 8.34534 29.7915H23.0101L19.1353 32Z" fill="#F47C7C"/>
<path d="M23.0099 29.7915L19.1354 31.9998H17.0867V29.7915H23.0099Z" fill="#EE6161"/>
<path d="M15.6777 28.4343C19.7273 28.4343 23.0101 25.1514 23.0101 21.1019C23.0101 17.0523 19.7273 13.7695 15.6777 13.7695C11.6281 13.7695 8.34534 17.0523 8.34534 21.1019C8.34534 25.1514 11.6281 28.4343 15.6777 28.4343Z" fill="#F47C7C"/>
<path d="M23.0098 21.1018C23.0098 25.1514 19.7271 28.4342 15.6775 28.4342C15.3294 28.4342 14.987 28.41 14.6519 28.3632C18.2152 27.8639 20.9575 24.8033 20.9575 21.1018C20.9575 17.4004 18.2152 14.3398 14.6519 13.8405C14.987 13.7937 15.3294 13.7695 15.6775 13.7695C19.7271 13.7695 23.0098 17.0523 23.0098 21.1018Z" fill="#EE6161"/>
<path d="M15.6777 26.6379C18.735 26.6379 21.2135 24.1595 21.2135 21.1021C21.2135 18.0448 18.735 15.5664 15.6777 15.5664C12.6204 15.5664 10.142 18.0448 10.142 21.1021C10.142 24.1595 12.6204 26.6379 15.6777 26.6379Z" fill="#EAF6FF"/>
<path d="M21.2135 21.1019C21.2135 24.1591 18.7353 26.6373 15.6776 26.6373C15.3956 26.6373 15.1179 26.6161 14.847 26.5755C17.5106 26.1747 19.5523 23.8766 19.5523 21.1019C19.5523 18.3271 17.5106 16.0285 14.847 15.6277C15.1179 15.5872 15.3956 15.5659 15.6776 15.5659C18.7353 15.5659 21.2135 18.0446 21.2135 21.1019Z" fill="#C8EFFE"/>
<path d="M24.7822 32H24.0119L21.9588 31.6727L19.9057 32H19.1353C18.5037 32 17.9916 31.488 17.9916 30.8564V27.5195L21.9587 27.0986L25.9258 27.5195V30.8564C25.9258 31.488 25.4138 32 24.7822 32Z" fill="#EAF6FF"/>
<path d="M25.9261 27.5197V30.8565C25.9261 31.4881 25.4138 32 24.7821 32H24.0119C24.6435 32 25.1554 31.4881 25.1554 30.8565V27.5197L25.505 27.3579L25.9261 27.5197Z" fill="#C8EFFE"/>
<path d="M24.0119 32.0001H19.9056V30.3569C19.9056 30.1673 20.0593 30.0137 20.2489 30.0137H23.6686C23.8582 30.0137 24.0118 30.1674 24.0118 30.3569V32.0001H24.0119Z" fill="#C8EFFE"/>
<path d="M24.0119 30.3564V31.9998H23.2668V30.4607C23.2668 30.2736 23.1638 30.1016 22.9988 30.0132H23.6686C23.8582 30.0132 24.0119 30.1669 24.0119 30.3564Z" fill="#99E6FC"/>
<path d="M25.5514 8H18.3661C17.4225 8 16.6576 8.76491 16.6576 9.70849L21.9587 10.0684L27.2599 9.70849C27.2599 8.76491 26.495 8 25.5514 8Z" fill="#EAF6FF"/>
<path d="M27.2599 9.70849L26.8088 9.93965L26.5148 9.70849C26.5148 9.2367 26.3235 8.80934 26.0145 8.50028C25.7049 8.19123 25.2781 8 24.8063 8H25.5514C26.0232 8 26.4505 8.19123 26.7596 8.50028C27.0686 8.80934 27.2599 9.2367 27.2599 9.70849Z" fill="#C8EFFE"/>
<path d="M25.9258 27.5195H17.9917L16.6576 9.7085H27.2599L25.9258 27.5195Z" fill="#C1E9AF"/>
<path d="M27.2598 9.7085L25.9261 27.5197H25.1805L26.5147 9.7085H27.2598Z" fill="#97DA7B"/>
<path d="M21.9587 17.878H21.059C20.0812 17.878 19.2885 17.0853 19.2885 16.1075V15.5964C19.2885 15.435 19.4194 15.3042 19.5808 15.3042H20.1882C21.166 15.3042 21.9587 16.0969 21.9587 17.0747V17.878H21.9587Z" fill="#97DA7B"/>
<path d="M21.9587 17.878H22.8585C23.8363 17.878 24.629 17.0853 24.629 16.1075V15.5964C24.629 15.435 24.4981 15.3042 24.3367 15.3042H23.7293C22.7515 15.3042 21.9588 16.0969 21.9588 17.0747V17.878H21.9587Z" fill="#80D261"/>
<path d="M30.8397 21.1305L29.6189 21.4246L28.3979 21.1305V19.0305C28.3979 18.5401 28.6206 18.0763 29.0032 17.7695L30.0002 16.97C30.3382 16.6989 30.8398 16.9396 30.8398 17.3729V21.1305H30.8397Z" fill="#EE6161"/>
<path d="M30.8395 17.3731V21.1305L30.4064 21.4246L29.8211 21.1305V17.3731C29.8211 17.292 29.8037 17.2181 29.7728 17.1524L30.0003 16.9699C30.3383 16.699 30.8395 16.9395 30.8395 17.3731Z" fill="#E94444"/>
<path d="M31.2264 25.8126L29.6189 26.0119L28.0114 25.8126V21.3229C28.0114 21.2166 28.0976 21.1304 28.2039 21.1304H31.0338C31.1401 21.1304 31.2264 21.2166 31.2264 21.3229V25.8126Z" fill="#A79BA7"/>
<path d="M31.2264 21.323V25.8125L30.6952 26.012L30.164 25.8125V21.3702C30.164 21.2698 30.1086 21.1776 30.0201 21.1304H31.0338C31.1401 21.1304 31.2264 21.2166 31.2264 21.323Z" fill="#918291"/>
<path d="M31.6547 26.0052V27.3399L31.5834 27.7021L31.6547 28.0643V31.3871C31.6547 31.7256 31.3804 31.9999 31.0419 31.9999H28.1957C27.8572 31.9999 27.5829 31.7256 27.5829 31.3871V26.0052C27.5829 25.8989 27.6693 25.8125 27.7756 25.8125H31.462C31.5682 25.8125 31.6547 25.8989 31.6547 26.0052Z" fill="#7A6D79"/>
<path d="M31.6547 26.0051V27.3399L31.5834 27.7021L31.6547 28.0643V31.3871C31.6547 31.7255 31.3803 31.9999 31.0419 31.9999H29.8211C30.1596 31.9999 30.4339 31.7256 30.4339 31.3871V26.0591C30.4339 25.9558 30.3769 25.8609 30.2857 25.8125H31.4621C31.5684 25.8125 31.6547 25.8987 31.6547 26.0051Z" fill="#685E68"/>
<path d="M23.4689 19.9919H20.4486C20.2486 19.9919 20.0864 19.8298 20.0864 19.6298C20.0864 19.4297 20.2486 19.2676 20.4486 19.2676H23.4688C23.6688 19.2676 23.831 19.4297 23.831 19.6298C23.831 19.8298 23.6689 19.9919 23.4689 19.9919Z" fill="#80D261"/>
<path d="M30.434 27.3398H31.6547V28.0642H30.434V27.3398Z" fill="#918291"/>
<path d="M30.434 27.3398V28.0642H29.8212C29.6212 28.0642 29.459 27.9019 29.459 27.702C29.459 27.5021 29.6212 27.3398 29.8212 27.3398H30.434Z" fill="#A79BA7"/>
</g>
<defs>
<clipPath id="clip0_1114_6976">
<rect width="24" height="24" fill="white" transform="translate(8 8)"/>
</clipPath>
</defs>
</svg>
