<svg width="40" height="40" viewBox="0 0 40 40" fill="none" xmlns="http://www.w3.org/2000/svg">
<circle cx="20" cy="20" r="20" fill="#F7F7F7"/>
<path d="M15.2105 8H12C10.9395 8.0012 9.92279 8.42302 9.1729 9.1729C8.42302 9.92279 8.0012 10.9395 8 12V15.2105C8.0012 16.271 8.42302 17.2877 9.1729 18.0376C9.92279 18.7875 10.9395 19.2093 12 19.2105H17.7368C18.1275 19.2101 18.5021 19.0546 18.7784 18.7784C19.0546 18.5021 19.2101 18.1275 19.2105 17.7368V12C19.2093 10.9395 18.7875 9.92279 18.0376 9.1729C17.2877 8.42302 16.271 8.0012 15.2105 8ZM17.9474 17.7368C17.9473 17.7926 17.925 17.8461 17.8856 17.8856C17.8461 17.925 17.7926 17.9473 17.7368 17.9474H12C11.2744 17.9465 10.5788 17.6579 10.0657 17.1448C9.55261 16.6318 9.264 15.9361 9.26316 15.2105V12C9.264 11.2744 9.55261 10.5788 10.0657 10.0657C10.5788 9.55261 11.2744 9.264 12 9.26316H15.2105C15.9361 9.264 16.6318 9.55261 17.1448 10.0657C17.6579 10.5788 17.9465 11.2744 17.9474 12V17.7368Z" fill="#6366F1"/>
<path d="M28 8H24.7895C23.729 8.0012 22.7123 8.42302 21.9624 9.1729C21.2125 9.92279 20.7907 10.9395 20.7895 12V17.7368C20.79 18.1275 20.9454 18.5021 21.2216 18.7784C21.4979 19.0546 21.8725 19.2101 22.2632 19.2105H28C29.0605 19.2093 30.0772 18.7875 30.8271 18.0376C31.577 17.2877 31.9988 16.271 32 15.2105V12C31.9988 10.9395 31.577 9.92279 30.8271 9.1729C30.0772 8.42302 29.0605 8.0012 28 8ZM30.7369 15.2105C30.736 15.9361 30.4474 16.6318 29.9343 17.1448C29.4213 17.6579 28.7256 17.9465 28 17.9474H22.2632C22.2074 17.9473 22.1539 17.925 22.1144 17.8856C22.075 17.8461 22.0528 17.7926 22.0526 17.7368V12C22.0535 11.2744 22.3421 10.5788 22.8552 10.0657C23.3683 9.55261 24.0639 9.264 24.7895 9.26316H28C28.7256 9.264 29.4213 9.55261 29.9343 10.0657C30.4474 10.5788 30.736 11.2744 30.7369 12V15.2105Z" fill="#6366F1"/>
<path d="M17.7368 20.7896H12C10.9395 20.7908 9.92279 21.2126 9.1729 21.9625C8.42302 22.7123 8.0012 23.7291 8 24.7896V28.0001C8.0012 29.0606 8.42302 30.0773 9.1729 30.8272C9.92279 31.5771 10.9395 31.9989 12 32.0001H15.2105C16.271 31.9989 17.2877 31.5771 18.0376 30.8272C18.7875 30.0773 19.2093 29.0606 19.2105 28.0001V22.2632C19.2101 21.8725 19.0546 21.498 18.7784 21.2217C18.5021 20.9454 18.1275 20.79 17.7368 20.7896ZM17.9474 28.0001C17.9465 28.7257 17.6579 29.4213 17.1448 29.9344C16.6318 30.4475 15.9361 30.7361 15.2105 30.7369H12C11.2744 30.7361 10.5788 30.4475 10.0657 29.9344C9.55261 29.4213 9.264 28.7257 9.26316 28.0001V24.7896C9.264 24.064 9.55261 23.3683 10.0657 22.8552C10.5788 22.3422 11.2744 22.0535 12 22.0527H17.7368C17.7926 22.0528 17.8461 22.075 17.8856 22.1145C17.925 22.154 17.9473 22.2074 17.9474 22.2632V28.0001Z" fill="#6366F1"/>
<path d="M28 20.7896H22.2632C21.8725 20.79 21.4979 20.9454 21.2216 21.2217C20.9454 21.498 20.79 21.8725 20.7895 22.2632V28.0001C20.7907 29.0606 21.2125 30.0773 21.9624 30.8272C22.7123 31.5771 23.729 31.9989 24.7895 32.0001H28C29.0605 31.9989 30.0772 31.5771 30.8271 30.8272C31.577 30.0773 31.9988 29.0606 32 28.0001V24.7896C31.9988 23.7291 31.577 22.7123 30.8271 21.9625C30.0772 21.2126 29.0605 20.7908 28 20.7896ZM30.7369 28.0001C30.736 28.7257 30.4474 29.4213 29.9343 29.9344C29.4213 30.4475 28.7256 30.7361 28 30.7369H24.7895C24.0639 30.7361 23.3683 30.4475 22.8552 29.9344C22.3421 29.4213 22.0535 28.7257 22.0526 28.0001V22.2632C22.0528 22.2074 22.075 22.154 22.1144 22.1145C22.1539 22.075 22.2074 22.0528 22.2632 22.0527H28C28.7256 22.0535 29.4213 22.3422 29.9343 22.8552C30.4474 23.3683 30.736 24.064 30.7369 24.7896V28.0001Z" fill="#6366F1"/>
</svg>
