<svg width="40" height="40" viewBox="0 0 40 40" fill="none" xmlns="http://www.w3.org/2000/svg">
<circle cx="20" cy="20" r="20" fill="#F7F7F7"/>
<path d="M22.7273 27.6363V26.5454H18.3636V27.6363C18.3636 28.2363 17.8727 28.7273 17.2727 28.7273H16.1818C15.8545 28.7273 15.6364 28.9455 15.6364 29.2727C15.6364 29.6 15.8546 29.8181 16.1818 29.8181H24.9091C25.2364 29.8181 25.4545 29.5999 25.4545 29.2727C25.4545 28.9454 25.2363 28.7273 24.9091 28.7273H23.8181C23.2182 28.7273 22.7273 28.2363 22.7273 27.6363Z" fill="#D5E3EF"/>
<path d="M18.3636 26.5455V27.0909H21.0909C21.4182 27.0909 21.6364 27.3091 21.6364 27.6363C21.6364 27.9636 21.8546 28.1818 22.1818 28.1818H22.4545C22.6182 28.1818 22.7272 28.0727 22.7272 27.9091V27.0908V26.5454H18.3636V26.5455Z" fill="#B0C4D9"/>
<path d="M24.9091 29.8181H16.1818C15.8545 29.8181 15.6364 29.5999 15.6364 29.2727H25.4546C25.4546 29.5999 25.2364 29.8181 24.9091 29.8181Z" fill="#B0C4D9"/>
<path d="M30.9091 26.5455H11.2727C10.6727 26.5455 10.1818 26.0546 10.1818 25.4546V11.2728C10.1818 10.6728 10.6727 10.1819 11.2727 10.1819H30.9091C31.5091 10.1819 32 10.6728 32 11.2728V25.4546C32 26.0547 31.5091 26.5455 30.9091 26.5455Z" fill="#D5E3EF"/>
<path d="M32 23.2728H10.1818V11.2728C10.1818 10.6728 10.6727 10.1819 11.2727 10.1819H30.9091C31.5091 10.1819 32 10.6728 32 11.2728V23.2728Z" fill="#717681"/>
<path d="M20.5454 25.4546C20.8467 25.4546 21.0909 25.2104 21.0909 24.9092C21.0909 24.608 20.8467 24.3638 20.5454 24.3638C20.2442 24.3638 20 24.608 20 24.9092C20 25.2104 20.2442 25.4546 20.5454 25.4546Z" fill="#717681"/>
<path d="M30.9091 11.2727H11.2727V22.1818H30.9091V11.2727Z" fill="#70B7E5"/>
<path d="M14.5454 29.8182H9.09092C8.49092 29.8182 8 29.3273 8 28.7273V17.8182C8 17.2182 8.49092 16.7273 9.09092 16.7273H14.5455C15.1455 16.7273 15.6364 17.2182 15.6364 17.8182V28.7273C15.6364 29.3273 15.1454 29.8182 14.5454 29.8182Z" fill="#717681"/>
<path d="M14.5454 29.8182H9.09092C8.49092 29.8182 8 29.3273 8 28.7273V17.8182C8 17.2182 8.49092 16.7273 9.09092 16.7273H14.5455C15.1455 16.7273 15.6364 17.2182 15.6364 17.8182V28.7273C15.6364 29.3273 15.1454 29.8182 14.5454 29.8182Z" fill="#717681"/>
<path d="M15.0909 16.8911V28.7275C15.0909 29.0548 14.8727 29.2729 14.5455 29.2729H8.16364C8.32728 29.6002 8.70907 29.8183 9.09092 29.8183H14.5455C15.1455 29.8183 15.6364 29.3274 15.6364 28.7274V17.8184C15.6364 17.4366 15.4182 17.0548 15.0909 16.8911Z" fill="#494A52"/>
<path d="M14.5455 18.9092H9.09094V27.6365H14.5455V18.9092Z" fill="#70B7E5"/>
<path d="M11.8182 29.2728C12.1194 29.2728 12.3636 29.0286 12.3636 28.7273C12.3636 28.4261 12.1194 28.1819 11.8182 28.1819C11.517 28.1819 11.2728 28.4261 11.2728 28.7273C11.2728 29.0286 11.517 29.2728 11.8182 29.2728Z" fill="#35363E"/>
<path d="M12.6364 18.3638H11C10.8364 18.3638 10.7273 18.2547 10.7273 18.0911C10.7273 17.9274 10.8364 17.8184 11 17.8184H12.6364C12.8 17.8184 12.9091 17.9274 12.9091 18.0911C12.9091 18.2547 12.8 18.3638 12.6364 18.3638Z" fill="#35363E"/>
<path d="M14.5454 27.6365H11.8182L14.5454 24.9092V27.6365Z" fill="#90CEF1"/>
<path d="M10.7273 27.6364L14.5454 23.8182V22.7273L9.63635 27.6364H10.7273Z" fill="#90CEF1"/>
<path d="M14.5455 18.9092H9.09094V19.4546H14.5455V18.9092Z" fill="#4C9CD6"/>
<path d="M8.54544 27.4184C8.54544 27.9093 8.32723 28.4002 8 28.7274V17.8184C8.32728 18.1456 8.54544 18.6366 8.54544 19.1274V27.4184Z" fill="#6F707E"/>
<path d="M29.8182 21.6364H25.4546L30.3637 16.7273V21.0909C30.3637 21.4182 30.1455 21.6364 29.8182 21.6364Z" fill="#90CEF1"/>
<path d="M23.8182 21.6364L30.3637 15.0909V13.4546L22.1818 21.6364H23.8182Z" fill="#90CEF1"/>
<path d="M13.1273 10.7273C12.6363 10.7273 12.1455 10.5091 11.8182 10.1819H22.7273C22.4 10.5092 21.9091 10.7273 21.4182 10.7273H13.1273Z" fill="#6F707E"/>
<path d="M16.7273 22.1819H15.6364V23.2728H16.7273V22.1819Z" fill="#35363E"/>
<path d="M16.7273 23.2727H15.6364V26.5454H16.7273V23.2727Z" fill="#B0C4D9"/>
<path d="M16.7273 22.182H15.6364V17.8184C16.2364 17.8184 16.7273 18.3093 16.7273 18.9093V22.182Z" fill="#4C9CD6"/>
</svg>
