<svg width="24" height="24" viewBox="0 0 24 24" fill="none" xmlns="http://www.w3.org/2000/svg">
<path d="M12 0C5.37067 0 0 5.37067 0 12C0 18.6293 5.37067 24 12 24C18.6293 24 24 18.6293 24 12C24 5.37067 18.6293 0 12 0ZM17.3493 9.232C17.3493 9.232 17.7387 12.784 14.9333 15.4453C11.0027 19.1733 5.33333 16.272 5.33333 16.272C8.05867 16.304 9.21067 15.1573 9.21067 15.1573C6.97067 14.7733 6.74667 13.1733 6.74667 13.1733C7.13067 13.4133 7.968 13.1733 7.968 13.1733C5.472 12.0267 5.86133 10.5173 5.86133 10.5173C6.58667 10.9227 7.13067 10.7733 7.13067 10.7733C5.18933 9.088 6.288 7.30133 6.288 7.30133C9.696 10.544 11.888 9.87733 11.888 9.87733C11.7333 7.59467 13.0827 6.70933 14.5387 6.66133C15.7653 6.61867 16.4693 7.472 16.4693 7.472C17.4133 7.552 18.2987 6.92267 18.2987 6.92267C18.2187 7.68533 17.184 8.33067 17.184 8.33067C17.7227 8.37867 18.6613 8.08533 18.6613 8.08533C18.176 8.976 17.3493 9.232 17.3493 9.232Z" fill="currentColor"/>
</svg>
