<svg width="24" height="24" viewBox="0 0 24 24" fill="none" xmlns="http://www.w3.org/2000/svg">
<path d="M12 0C9.62663 0 7.30655 0.703788 5.33316 2.02236C3.35977 3.34094 1.8217 5.21508 0.913451 7.4078C0.00519938 9.60051 -0.232441 12.0133 0.230582 14.3411C0.693605 16.6688 1.83649 18.807 3.51472 20.4853C5.19295 22.1635 7.33115 23.3064 9.65892 23.7694C11.9867 24.2324 14.3995 23.9948 16.5922 23.0865C18.7849 22.1783 20.6591 20.6402 21.9776 18.6668C23.2962 16.6934 24 14.3734 24 12C24 8.8174 22.7357 5.76515 20.4853 3.51472C18.2348 1.26428 15.1826 0 12 0V0ZM15.0411 10.8632L14.8421 12.5353C14.8335 12.6129 14.7965 12.6845 14.7382 12.7364C14.6799 12.7883 14.6044 12.8168 14.5263 12.8163H12.7895V17.7742C12.7899 17.8334 12.7669 17.8904 12.7255 17.9327C12.6841 17.975 12.6276 17.9992 12.5684 18H10.8C10.7706 17.9996 10.7415 17.9934 10.7144 17.9817C10.6874 17.9701 10.6629 17.9532 10.6424 17.9321C10.6219 17.911 10.6057 17.886 10.5948 17.8587C10.5839 17.8313 10.5785 17.8021 10.5789 17.7726L10.5884 12.8163H9.27316C9.18941 12.8163 9.10909 12.783 9.04986 12.7238C8.99064 12.6646 8.95737 12.5843 8.95737 12.5005V10.83C8.95737 10.7462 8.99064 10.6659 9.04986 10.6067C9.10909 10.5475 9.18941 10.5142 9.27316 10.5142H10.5789V8.89421C10.5789 7.02 11.6953 6 13.3263 6H14.6637C14.7474 6 14.8278 6.03327 14.887 6.09249C14.9462 6.15171 14.9795 6.23203 14.9795 6.31579V7.72263C14.9795 7.80638 14.9462 7.8867 14.887 7.94593C14.8278 8.00515 14.7474 8.03842 14.6637 8.03842H13.8442C12.9568 8.05263 12.7895 8.47737 12.7895 9.1121V10.5095H14.7347C14.7788 10.5105 14.8222 10.5207 14.862 10.5395C14.9019 10.5582 14.9374 10.5851 14.9663 10.6184C14.9951 10.6518 15.0167 10.6907 15.0296 10.7329C15.0424 10.775 15.0464 10.8194 15.0411 10.8632Z" fill="currentColor"/>
</svg>
