<svg width="16" height="13" viewBox="0 0 16 13" fill="none" xmlns="http://www.w3.org/2000/svg">
<path fill-rule="evenodd" clip-rule="evenodd" d="M0.708374 4.35816C0.708374 2.10775 2.68266 0.375 5.00004 0.375C6.1946 0.375 7.24574 0.935116 8.00004 1.65986C8.75434 0.935116 9.80548 0.375 11 0.375C13.3174 0.375 15.2917 2.10775 15.2917 4.35816C15.2917 5.89972 14.6343 7.25537 13.7235 8.40128C12.8143 9.54522 11.625 10.5161 10.4863 11.305C10.0513 11.6063 9.61131 11.8843 9.2086 12.0893C8.83046 12.2819 8.39566 12.4583 8.00004 12.4583C7.60442 12.4583 7.16962 12.2819 6.79148 12.0893C6.38877 11.8843 5.94876 11.6063 5.51382 11.305C4.37508 10.5161 3.18577 9.54522 2.27656 8.40128C1.36577 7.25537 0.708374 5.89972 0.708374 4.35816ZM5.00004 1.625C3.26733 1.625 1.95837 2.89925 1.95837 4.35816C1.95837 5.52774 2.45486 6.61667 3.25512 7.62351C4.05694 8.63234 5.13581 9.52244 6.22566 10.2775C6.63806 10.5632 7.02649 10.8063 7.35875 10.9755C7.71558 11.1572 7.92226 11.2083 8.00004 11.2083C8.07782 11.2083 8.2845 11.1572 8.64133 10.9755C8.97359 10.8063 9.36203 10.5632 9.77442 10.2775C10.8643 9.52244 11.9431 8.63234 12.745 7.62351C13.5452 6.61667 14.0417 5.52774 14.0417 4.35816C14.0417 2.89925 12.7327 1.625 11 1.625C10.0049 1.625 9.0757 2.21952 8.49551 2.9741C8.37721 3.12797 8.19413 3.21814 8.00004 3.21814C7.80595 3.21814 7.62288 3.12797 7.50457 2.9741C6.92438 2.21952 5.99517 1.625 5.00004 1.625Z" fill="#1E1E1E"/>
</svg>
