<svg width="20" height="16" viewBox="0 0 20 16" fill="none" xmlns="http://www.w3.org/2000/svg">
<path fill-rule="evenodd" clip-rule="evenodd" d="M0.80403 4.3533C0.523887 6.95619 0.536374 9.95818 0.926198 12.5505C1.1419 13.9849 2.31257 15.0845 3.75763 15.2102L5.26787 15.3414C8.41691 15.6152 11.5838 15.6152 14.7328 15.3414L16.2431 15.2102C17.6881 15.0845 18.8588 13.9849 19.0745 12.5505C19.4643 9.95817 19.4768 6.95636 19.1967 4.35345C19.1605 4.05169 19.1197 3.75034 19.0745 3.44949C18.8588 2.0151 17.6881 0.915451 16.2431 0.789834L14.7328 0.658552C11.5838 0.384812 8.41691 0.384812 5.26787 0.658553L3.75763 0.789834C2.31257 0.915451 1.1419 2.0151 0.926198 3.44949C0.880965 3.75028 0.840242 4.05159 0.80403 4.3533ZM5.39777 2.15292C8.46038 1.88669 11.5403 1.88669 14.6029 2.15292L16.1131 2.2842C16.8675 2.34977 17.4786 2.92379 17.5912 3.67254C17.6029 3.7503 17.6142 3.82809 17.6253 3.90592L12.0643 6.99537C10.7807 7.70848 9.21992 7.70848 7.93632 6.99537L2.37539 3.90596C2.38645 3.82812 2.39783 3.75031 2.40952 3.67254C2.52211 2.92379 3.13321 2.34977 3.88754 2.2842L5.39777 2.15292ZM17.8088 5.51989C18.0028 7.78764 17.9303 10.0725 17.5912 12.3274C17.4786 13.0762 16.8675 13.6502 16.1132 13.7158L14.6029 13.8471C11.5403 14.1133 8.46038 14.1133 5.39777 13.8471L3.88754 13.7158C3.13321 13.6502 2.52211 13.0762 2.40952 12.3274C2.07043 10.0725 1.99787 7.78766 2.19184 5.51992L7.20786 8.3066C8.94449 9.2714 11.0561 9.2714 12.7928 8.3066L17.8088 5.51989Z" fill="#6366F1"/>
</svg>
