<svg width="18" height="15" viewBox="0 0 18 15" fill="none" xmlns="http://www.w3.org/2000/svg">
<path d="M5 5.50004C4.30964 5.50004 3.75 6.05968 3.75 6.75004C3.75 7.44039 4.30964 8.00004 5 8.00004C5.69036 8.00004 6.25 7.44039 6.25 6.75004C6.25 6.05968 5.69036 5.50004 5 5.50004Z" fill="white"/>
<path d="M9 5.50004C8.30964 5.50004 7.75 6.05968 7.75 6.75004C7.75 7.44039 8.30964 8.00004 9 8.00004C9.69036 8.00004 10.25 7.44039 10.25 6.75004C10.25 6.05968 9.69036 5.50004 9 5.50004Z" fill="white"/>
<path d="M11.75 6.75004C11.75 6.05968 12.3096 5.50004 13 5.50004C13.6904 5.50004 14.25 6.05968 14.25 6.75004C14.25 7.44039 13.6904 8.00004 13 8.00004C12.3096 8.00004 11.75 7.44039 11.75 6.75004Z" fill="white"/>
<path fill-rule="evenodd" clip-rule="evenodd" d="M13.1007 0.592829C10.4065 0.36307 7.69826 0.349736 5.00194 0.552956L4.80871 0.56752C2.23741 0.761318 0.25 2.90415 0.25 5.48275V14C0.25 14.2639 0.388666 14.5084 0.615148 14.6438C0.841631 14.7792 1.12261 14.7856 1.35504 14.6607L5.26583 12.559C5.44774 12.4612 5.65104 12.41 5.85756 12.41H14.834C15.9661 12.41 16.9362 11.6006 17.1392 10.4869C17.5505 8.22966 17.5829 5.9197 17.2353 3.65179L17.1329 2.98346C16.9464 1.76671 15.951 0.835897 14.7245 0.731301L13.1007 0.592829ZM5.11468 2.04871C7.73103 1.85152 10.359 1.86446 12.9733 2.0874L14.597 2.22588C15.1334 2.27162 15.5686 2.67865 15.6502 3.21073L15.7526 3.87906C16.075 5.98234 16.0449 8.12463 15.6635 10.218C15.5904 10.6188 15.2413 10.91 14.834 10.91H5.85756C5.40322 10.91 4.95596 11.0226 4.55575 11.2377L1.75 12.7455V5.48275C1.75 3.68884 3.13262 2.1981 4.92144 2.06328L5.11468 2.04871Z" fill="white"/>
</svg>
