<svg width="18" height="18" viewBox="0 0 18 18" fill="none" xmlns="http://www.w3.org/2000/svg">
<path fill-rule="evenodd" clip-rule="evenodd" d="M11.3851 12.4458C8.73479 14.5685 4.85535 14.4014 2.39857 11.9446C-0.23747 9.30856 -0.23747 5.0347 2.39857 2.39866C5.03461 -0.237379 9.30847 -0.237379 11.9445 2.39866C14.4013 4.85544 14.5684 8.73487 12.4457 11.3851L17.6013 16.5408C17.8942 16.8337 17.8942 17.3085 17.6013 17.6014C17.3085 17.8943 16.8336 17.8943 16.5407 17.6014L11.3851 12.4458ZM3.45923 10.8839C1.40898 8.83369 1.40898 5.50957 3.45923 3.45932C5.50948 1.40907 8.8336 1.40907 10.8839 3.45932C12.9326 5.50807 12.9341 8.82881 10.8884 10.8794C10.8868 10.8809 10.8853 10.8824 10.8838 10.8839C10.8823 10.8854 10.8808 10.8869 10.8793 10.8884C8.82873 12.9342 5.50798 12.9327 3.45923 10.8839Z" fill="#B3B3B3"/>
</svg>
