<svg width="20" height="20" viewBox="0 0 20 20" fill="none" xmlns="http://www.w3.org/2000/svg">
<path d="M18.617 8.03949C18.3602 7.86712 18.1284 7.66037 17.9279 7.42495C17.9428 7.09717 18.0086 6.77373 18.1232 6.46629C18.3384 5.73755 18.6065 4.8306 18.0898 4.12092C17.5694 3.4056 16.6187 3.38158 15.8549 3.36206C15.5336 3.37489 15.2122 3.34034 14.901 3.25951C14.7298 2.99108 14.5992 2.69893 14.5132 2.39242C14.2583 1.66663 13.9409 0.763289 13.0906 0.486988C12.2656 0.218857 11.5253 0.728284 10.8724 1.17626C10.6101 1.38574 10.3155 1.55131 10.0002 1.6666C9.68476 1.55144 9.39005 1.38583 9.12766 1.17626C8.4748 0.72789 7.73422 0.220071 6.90942 0.486988C6.05942 0.763289 5.74204 1.66617 5.4869 2.39212C5.40108 2.6971 5.27185 2.98816 5.10319 3.25636C4.79097 3.33966 4.46795 3.37519 4.1451 3.36177C3.38135 3.38125 2.43064 3.4053 1.91022 4.12059C1.39354 4.83067 1.66161 5.73762 1.87689 6.46642C1.99007 6.77225 2.05654 7.09337 2.07403 7.41901C1.87443 7.65774 1.64169 7.86673 1.38291 8.03952C0.766667 8.50948 0 9.09456 0 9.99994C0 10.9053 0.766667 11.4904 1.38304 11.9604C1.63976 12.1327 1.87164 12.3395 2.07212 12.5749C2.05723 12.9027 1.99135 13.2261 1.87682 13.5336C1.66158 14.2623 1.39348 15.1693 1.91015 15.8789C2.43057 16.5943 3.38129 16.6183 4.14507 16.6378C4.46638 16.625 4.78779 16.6596 5.09903 16.7404C5.27015 17.0088 5.40082 17.301 5.48681 17.6075C5.74195 18.3334 6.05932 19.2366 6.90951 19.513C7.06013 19.5624 7.21767 19.5875 7.37619 19.5875C8.01606 19.5875 8.60035 19.1859 9.12773 18.8237C9.39008 18.6142 9.68463 18.4486 9.99997 18.3333C10.3154 18.4484 10.6101 18.614 10.8726 18.8236C11.5254 19.272 12.2658 19.7794 13.0908 19.5129C13.9408 19.2366 14.2582 18.3337 14.5133 17.6077C14.5991 17.3028 14.7284 17.0117 14.897 16.7435C15.2093 16.6602 15.5323 16.6247 15.8551 16.6381C16.6189 16.6186 17.5696 16.5946 18.09 15.8793C18.6067 15.1692 18.3386 14.2622 18.1233 13.5334C18.0102 13.2276 17.9437 12.9065 17.9262 12.5809C18.1258 12.3421 18.3585 12.1331 18.6173 11.9604C19.2333 11.4904 20 10.9053 20 9.99994C20 9.09456 19.2333 8.50948 18.617 8.03949ZM13.7142 8.50581L9.54752 12.6725C9.22221 12.9979 8.69471 12.998 8.36929 12.6727C8.36923 12.6726 8.36916 12.6725 8.3691 12.6725L6.28576 10.5891C5.95621 10.2678 5.94952 9.74023 6.27079 9.41069C6.59207 9.08114 7.11968 9.07445 7.44922 9.39573C7.45427 9.40065 7.45926 9.40564 7.46418 9.41069L8.95831 10.9049L12.5358 7.32735C12.8571 6.9978 13.3847 6.99114 13.7142 7.31242C14.0438 7.6337 14.0504 8.1613 13.7291 8.49085C13.7242 8.49593 13.7192 8.50089 13.7142 8.50581Z" fill="#6366F1"/>
</svg>
