<svg width="103" height="25" viewBox="0 0 103 25" fill="none" xmlns="http://www.w3.org/2000/svg">
<path d="M18.942 11.643C18.86 13.4197 17.6163 15.8523 15.211 18.941C12.7237 22.1663 10.619 23.779 8.897 23.779C7.831 23.779 6.929 22.795 6.191 20.827C5.699 19.023 5.207 17.219 4.715 15.415C4.16833 13.447 3.58067 12.463 2.952 12.463C2.81533 12.463 2.337 12.75 1.517 13.324L0.656 12.217C1.558 11.4243 2.44633 10.6317 3.321 9.839C4.52367 8.80033 5.42567 8.25367 6.027 8.199C7.44833 8.06233 8.323 9.03267 8.651 11.11C9.00633 13.3513 9.25233 14.7453 9.389 15.292C9.799 17.1507 10.25 18.08 10.742 18.08C11.1247 18.08 11.6987 17.4787 12.464 16.276C13.2293 15.0733 13.6393 14.1577 13.694 13.529C13.8033 12.4903 13.3933 11.971 12.464 11.971C12.0267 11.971 11.5757 12.0667 11.111 12.258C12.013 9.33333 13.735 7.912 16.277 7.994C18.163 8.04867 19.0513 9.265 18.942 11.643ZM28.215 2.787C28.1877 3.47033 27.846 4.12633 27.19 4.755C26.452 5.46567 25.5774 5.821 24.566 5.821C23.008 5.821 22.2564 5.13767 22.311 3.771C22.3384 3.06033 22.7484 2.377 23.541 1.721C24.361 1.065 25.263 0.736998 26.247 0.736998C26.821 0.736998 27.2994 0.969332 27.682 1.434C28.0647 1.87133 28.2424 2.32233 28.215 2.787ZM31.782 17.383C31.0167 18.8317 29.9644 20.1437 28.625 21.319C26.7937 22.9043 24.9624 23.697 23.131 23.697C22.2837 23.697 21.6277 23.4237 21.163 22.877C20.7257 22.3303 20.5207 21.6197 20.548 20.745C20.5754 19.843 20.8487 18.449 21.368 16.563C21.9147 14.677 22.188 13.6657 22.188 13.529C22.188 12.8183 21.942 12.463 21.45 12.463C21.286 12.463 20.8214 12.75 20.056 13.324L19.113 12.217C19.9877 11.4243 20.8624 10.6317 21.737 9.839C22.9124 8.80033 23.787 8.25367 24.361 8.199C25.263 8.117 25.919 8.39033 26.329 9.019C26.7664 9.62033 26.9304 10.413 26.821 11.397C26.4657 13.0643 26.083 15.1827 25.673 17.752C25.6457 18.9273 26.0694 19.515 26.944 19.515C27.3267 19.515 28.01 19.105 28.994 18.285C29.814 17.6017 30.4837 16.9593 31.003 16.358L31.782 17.383ZM43.206 10.126C43.3153 10.8913 43.1103 11.561 42.591 12.135C42.0717 12.709 41.4293 13.0097 40.664 13.037C39.598 13.0917 38.8327 12.6133 38.368 11.602C38.3953 11.602 38.491 11.602 38.655 11.602C38.7917 11.6293 38.8737 11.643 38.901 11.643C39.393 11.643 39.639 11.397 39.639 10.905C39.6663 10.741 39.5707 10.6043 39.352 10.495C39.1607 10.3857 38.9557 10.331 38.737 10.331C37.999 10.3583 37.5617 10.823 37.425 11.725C37.343 12.3537 38.04 13.406 39.516 14.882C41.156 16.522 42.0717 17.6837 42.263 18.367C42.3723 18.777 42.427 19.1597 42.427 19.515C42.427 20.8817 41.7163 21.975 40.295 22.795C39.065 23.5057 37.589 23.8883 35.867 23.943C34.1177 23.9977 32.6553 23.7517 31.48 23.205C29.9767 22.4943 29.266 21.3873 29.348 19.884C29.4027 18.9547 29.7717 18.1757 30.455 17.547C31.1383 16.891 32.0403 16.5903 33.161 16.645C34.4457 16.6997 35.088 17.4103 35.088 18.777C35.088 18.9683 35.0743 19.146 35.047 19.31C34.801 18.982 34.35 18.8453 33.694 18.9C33.0653 18.9547 32.7783 19.2827 32.833 19.884C32.8603 20.3213 33.2567 20.5673 34.022 20.622C34.842 20.6767 35.4707 20.5127 35.908 20.13C36.3727 19.7473 36.5777 19.2553 36.523 18.654C36.4957 18.2167 36.0583 17.588 35.211 16.768C34.0903 15.702 33.3523 14.923 32.997 14.431C32.259 13.3923 31.9583 12.299 32.095 11.151C32.2043 10.2763 32.71 9.48367 33.612 8.773C34.76 7.871 36.2633 7.39267 38.122 7.338C41.2653 7.22867 42.96 8.158 43.206 10.126ZM65.9943 17.383C65.229 18.8317 64.1766 20.1437 62.8373 21.319C61.006 22.9043 59.1746 23.697 57.3433 23.697C55.5666 23.697 54.7056 22.713 54.7603 20.745C54.7876 19.843 54.938 18.777 55.2113 17.547C55.4846 16.2897 55.635 15.333 55.6623 14.677C55.717 13.6657 55.4436 13.16 54.8423 13.16C53.9403 13.16 52.9563 13.8843 51.8903 15.333C50.715 16.9183 50.1 18.5993 50.0453 20.376C49.9906 22.1253 50.0863 23.287 50.3323 23.861C46.943 23.943 45.2483 22.6583 45.2483 20.007C45.2483 19.7337 45.262 19.4467 45.2893 19.146C45.754 17.5607 46.2186 15.6063 46.6833 13.283C46.7106 12.7363 46.5876 12.463 46.3143 12.463C46.1503 12.463 45.6856 12.75 44.9203 13.324L43.9773 12.217C44.114 12.1077 44.975 11.3013 46.5603 9.798C47.681 8.732 48.4463 8.199 48.8563 8.199C50.1136 8.199 50.7423 9.08733 50.7423 10.864C50.7423 11.274 50.7013 11.684 50.6193 12.094C51.3026 11.4653 51.9996 10.9187 52.7103 10.454C54.405 9.36067 56.0313 8.74567 57.5893 8.609C58.9013 8.49967 59.8443 8.814 60.4183 9.552C60.9103 10.1533 61.129 11.0143 61.0743 12.135C61.047 12.9003 60.8556 14.021 60.5003 15.497C60.1723 16.9457 60.0083 17.7793 60.0083 17.998C59.981 18.572 60.0356 18.9683 60.1723 19.187C60.309 19.4057 60.637 19.515 61.1563 19.515C61.539 19.515 62.2223 19.105 63.2063 18.285C64.0263 17.6017 64.696 16.9593 65.2153 16.358L65.9943 17.383ZM71.6574 2.787C71.6301 3.47033 71.2884 4.12633 70.6324 4.755C69.8944 5.46567 69.0198 5.821 68.0084 5.821C66.4504 5.821 65.6988 5.13767 65.7534 3.771C65.7808 3.06033 66.1908 2.377 66.9834 1.721C67.8034 1.065 68.7054 0.736998 69.6894 0.736998C70.2634 0.736998 70.7418 0.969332 71.1244 1.434C71.5071 1.87133 71.6848 2.32233 71.6574 2.787ZM75.2244 17.383C74.4591 18.8317 73.4068 20.1437 72.0674 21.319C70.2361 22.9043 68.4048 23.697 66.5734 23.697C65.7261 23.697 65.0701 23.4237 64.6054 22.877C64.1681 22.3303 63.9631 21.6197 63.9904 20.745C64.0178 19.843 64.2911 18.449 64.8104 16.563C65.3571 14.677 65.6304 13.6657 65.6304 13.529C65.6304 12.8183 65.3844 12.463 64.8924 12.463C64.7284 12.463 64.2638 12.75 63.4984 13.324L62.5554 12.217C63.4301 11.4243 64.3048 10.6317 65.1794 9.839C66.3548 8.80033 67.2294 8.25367 67.8034 8.199C68.7054 8.117 69.3614 8.39033 69.7714 9.019C70.2088 9.62033 70.3728 10.413 70.2634 11.397C69.9081 13.0643 69.5254 15.1827 69.1154 17.752C69.0881 18.9273 69.5118 19.515 70.3864 19.515C70.7691 19.515 71.4524 19.105 72.4364 18.285C73.2564 17.6017 73.9261 16.9593 74.4454 16.358L75.2244 17.383ZM86.6484 10.126C86.7577 10.8913 86.5527 11.561 86.0334 12.135C85.514 12.709 84.8717 13.0097 84.1064 13.037C83.0404 13.0917 82.275 12.6133 81.8104 11.602C81.8377 11.602 81.9334 11.602 82.0974 11.602C82.234 11.6293 82.316 11.643 82.3434 11.643C82.8354 11.643 83.0814 11.397 83.0814 10.905C83.1087 10.741 83.013 10.6043 82.7944 10.495C82.603 10.3857 82.398 10.331 82.1794 10.331C81.4414 10.3583 81.004 10.823 80.8674 11.725C80.7854 12.3537 81.4824 13.406 82.9584 14.882C84.5984 16.522 85.514 17.6837 85.7054 18.367C85.8147 18.777 85.8694 19.1597 85.8694 19.515C85.8694 20.8817 85.1587 21.975 83.7374 22.795C82.5074 23.5057 81.0314 23.8883 79.3094 23.943C77.56 23.9977 76.0977 23.7517 74.9224 23.205C73.419 22.4943 72.7084 21.3873 72.7904 19.884C72.845 18.9547 73.214 18.1757 73.8974 17.547C74.5807 16.891 75.4827 16.5903 76.6034 16.645C77.888 16.6997 78.5304 17.4103 78.5304 18.777C78.5304 18.9683 78.5167 19.146 78.4894 19.31C78.2434 18.982 77.7924 18.8453 77.1364 18.9C76.5077 18.9547 76.2207 19.2827 76.2754 19.884C76.3027 20.3213 76.699 20.5673 77.4644 20.622C78.2844 20.6767 78.913 20.5127 79.3504 20.13C79.815 19.7473 80.02 19.2553 79.9654 18.654C79.938 18.2167 79.5007 17.588 78.6534 16.768C77.5327 15.702 76.7947 14.923 76.4394 14.431C75.7014 13.3923 75.4007 12.299 75.5374 11.151C75.6467 10.2763 76.1524 9.48367 77.0544 8.773C78.2024 7.871 79.7057 7.39267 81.5644 7.338C84.7077 7.22867 86.4024 8.158 86.6484 10.126ZM102.344 10.126C102.453 10.8913 102.248 11.561 101.729 12.135C101.209 12.709 100.567 13.0097 99.8017 13.037C98.7357 13.0917 97.9704 12.6133 97.5057 11.602C97.533 11.602 97.6287 11.602 97.7927 11.602C97.9294 11.6293 98.0114 11.643 98.0387 11.643C98.5307 11.643 98.7767 11.397 98.7767 10.905C98.804 10.741 98.7084 10.6043 98.4897 10.495C98.2984 10.3857 98.0934 10.331 97.8747 10.331C97.1367 10.3583 96.6994 10.823 96.5627 11.725C96.4807 12.3537 97.1777 13.406 98.6537 14.882C100.294 16.522 101.209 17.6837 101.401 18.367C101.51 18.777 101.565 19.1597 101.565 19.515C101.565 20.8817 100.854 21.975 99.4327 22.795C98.2027 23.5057 96.7267 23.8883 95.0047 23.943C93.2554 23.9977 91.793 23.7517 90.6177 23.205C89.1144 22.4943 88.4037 21.3873 88.4857 19.884C88.5404 18.9547 88.9094 18.1757 89.5927 17.547C90.276 16.891 91.178 16.5903 92.2987 16.645C93.5834 16.6997 94.2257 17.4103 94.2257 18.777C94.2257 18.9683 94.212 19.146 94.1847 19.31C93.9387 18.982 93.4877 18.8453 92.8317 18.9C92.203 18.9547 91.916 19.2827 91.9707 19.884C91.998 20.3213 92.3944 20.5673 93.1597 20.622C93.9797 20.6767 94.6084 20.5127 95.0457 20.13C95.5104 19.7473 95.7154 19.2553 95.6607 18.654C95.6334 18.2167 95.196 17.588 94.3487 16.768C93.228 15.702 92.49 14.923 92.1347 14.431C91.3967 13.3923 91.096 12.299 91.2327 11.151C91.342 10.2763 91.8477 9.48367 92.7497 8.773C93.8977 7.871 95.401 7.39267 97.2597 7.338C100.403 7.22867 102.098 8.158 102.344 10.126Z" fill="currentColor"/>
</svg>
