<svg width="11" height="11" viewBox="0 0 11 11" fill="none"
  xmlns="http://www.w3.org/2000/svg">
  <g clip-path="url(#clip0_13314_113567)">
    <path d="M9.80664 1.15184H8.78807V0.365469C8.78807 0.163852 8.62594 0 8.42644 0C8.22695 0 8.06482 0.163852 8.06482 0.365469V1.15184H2.93518V0.365469C2.93518 0.163852 2.77305 0 2.57356 0C2.37406 0 2.21193 0.163852 2.21193 0.365469V1.15184H1.19336C0.535204 1.15184 0 1.80054 0 2.59787V8.36132C0 9.81649 1.17106 11 2.61093 11H8.38908C9.82894 11 11 9.81649 11 8.36132V2.59787C11 1.80054 10.4648 1.15184 9.80664 1.15184ZM1.19336 1.88277H2.21193V2.14774C2.21193 2.34935 2.37406 2.51321 2.57356 2.51321C2.77305 2.51321 2.93518 2.34935 2.93518 2.14774V1.88277H8.06422V2.14774C8.06422 2.34935 8.22634 2.51321 8.42584 2.51321C8.62534 2.51321 8.78746 2.34935 8.78746 2.14774V1.88277H9.80604C10.061 1.88277 10.2761 2.21048 10.2761 2.59787V3.4415H0.723248V2.59787C0.723248 2.21048 0.938414 1.88277 1.19336 1.88277ZM8.38908 10.2691H2.61093C1.57005 10.2691 0.723248 9.41326 0.723248 8.36132V4.17243H10.2768V8.36132C10.2768 9.41326 9.42995 10.2691 8.38908 10.2691Z" fill="currentColor"/>
    <path d="M6.72841 5.42304L5.49949 6.66503L4.27057 5.42304C4.09639 5.24701 3.81312 5.24701 3.63894 5.42304C3.46476 5.59908 3.46476 5.88536 3.63894 6.06139L4.86786 7.30338L3.63894 8.54536C3.46476 8.7214 3.46476 9.00768 3.63894 9.18371C3.81312 9.35975 4.09639 9.35975 4.27057 9.18371L5.49949 7.94173L6.72841 9.18371C6.90259 9.35975 7.18587 9.35975 7.36005 9.18371C7.53423 9.00768 7.53423 8.7214 7.36005 8.54536L6.13113 7.30338L7.36005 6.06139C7.53423 5.88536 7.53423 5.59908 7.36005 5.42304C7.18587 5.24701 6.90259 5.24701 6.72841 5.42304Z" fill="currentColor"/>
  </g>
  <defs>
    <clipPath id="clip0_13314_113567">
      <rect width="11" height="11" fill="white"/>
    </clipPath>
  </defs>
</svg>
