<svg width="40" height="40" viewBox="0 0 40 40" fill="none" xmlns="http://www.w3.org/2000/svg">
  <path d="M20 40C31.0457 40 40 31.0457 40 20C40 8.95431 31.0457 0 20 0C8.95431 0 0 8.95431 0 20C0 31.0457 8.95431 40 20 40Z" fill="null"/>
  <path d="M23.28 21.9455V12.0549C23.28 11.6538 23.1992 11.2565 23.0422 10.8859C22.8853 10.5152 22.6552 10.1784 22.3651 9.89477C22.075 9.61109 21.7307 9.38607 21.3517 9.23255C20.9727 9.07902 20.5665 9 20.1562 9C19.746 9 19.3398 9.07902 18.9608 9.23255C18.5818 9.38607 18.2375 9.61109 17.9474 9.89477C17.6573 10.1784 17.4272 10.5152 17.2703 10.8859C17.1133 11.2565 17.0325 11.6538 17.0325 12.0549V21.9455C16.174 22.5848 15.5423 23.4713 15.2262 24.4802C14.9101 25.4891 14.9256 26.5696 15.2706 27.5695C15.6155 28.5693 16.2725 29.4381 17.149 30.0535C18.0255 30.669 19.0773 31 20.1562 31C21.2352 31 22.2871 30.669 23.1635 30.0535C24.04 29.4381 24.697 28.5693 25.0419 27.5695C25.3869 26.5696 25.4024 25.4891 25.0863 24.4802C24.7702 23.4713 24.1385 22.5848 23.28 21.9455ZM20.1562 29.6759C19.3382 29.6742 18.5425 29.4147 17.8871 28.9358C17.2318 28.457 16.7517 27.7844 16.5181 27.0177C16.2844 26.2509 16.3097 25.431 16.5902 24.6795C16.8706 23.9279 17.3912 23.2848 18.0749 22.8454C18.1686 22.7854 18.2455 22.7036 18.2989 22.6074C18.3522 22.5111 18.3802 22.4033 18.3805 22.2939V12.0549C18.3949 11.604 18.5883 11.1763 18.9195 10.8623C19.2508 10.5483 19.694 10.3727 20.1554 10.3727C20.6167 10.3727 21.0599 10.5483 21.3912 10.8623C21.7225 11.1763 21.9158 11.604 21.9303 12.0549V22.287C21.9305 22.3965 21.9586 22.5042 22.0119 22.6005C22.0652 22.6968 22.1422 22.7786 22.2359 22.8386C22.9206 23.2772 23.4424 23.9201 23.7236 24.6718C24.0049 25.4236 24.0307 26.244 23.7971 27.0112C23.5635 27.7784 23.0831 28.4514 22.4271 28.9303C21.7712 29.4091 20.9748 29.6682 20.1562 29.6691V29.6759Z" fill="currentColor"/>
  <path d="M20.7771 23.9255V15.1333C20.769 14.9624 20.7 14.8014 20.5845 14.6836C20.469 14.5657 20.3157 14.5 20.1562 14.5C19.9968 14.5 19.8435 14.5657 19.728 14.6836C19.6125 14.8014 19.5435 14.9624 19.5354 15.1333V23.9255C19.0657 24.0846 18.6645 24.4189 18.4045 24.868C18.1445 25.317 18.0428 25.851 18.1178 26.3735C18.1928 26.896 18.4396 27.3724 18.8135 27.7166C19.1874 28.0608 19.6637 28.25 20.1562 28.25C20.6488 28.25 21.1251 28.0608 21.499 27.7166C21.8729 27.3724 22.1197 26.896 22.1947 26.3735C22.2697 25.851 22.168 25.317 21.908 24.868C21.648 24.4189 21.2468 24.0846 20.7771 23.9255Z" fill="currentColor"/>
</svg>
