<svg width="40" height="40" viewBox="0 0 40 40" fill="none" xmlns="http://www.w3.org/2000/svg">
  <path d="M20 40C31.0457 40 40 31.0457 40 20C40 8.95431 31.0457 0 20 0C8.95431 0 0 8.95431 0 20C0 31.0457 8.95431 40 20 40Z" fill="null"/>
  <path d="M30.7738 23.8002C30.2237 23.3316 29.782 22.7493 29.4791 22.0933C29.1762 21.4373 29.0193 20.7234 29.0193 20.0009C29.0193 19.2784 29.1762 18.5644 29.4791 17.9085C29.782 17.2525 30.2237 16.6701 30.7738 16.2016C30.8773 16.1132 30.9503 15.9943 30.9821 15.862C31.014 15.7296 31.0031 15.5905 30.951 15.4647C30.899 15.3389 30.8085 15.2328 30.6924 15.1616C30.5764 15.0904 30.4408 15.0578 30.305 15.0684C29.5848 15.1258 28.8607 15.0261 28.1827 14.7764C27.5048 14.5266 26.8891 14.1327 26.3782 13.6218C25.8673 13.1109 25.4734 12.4952 25.2236 11.8173C24.9739 11.1393 24.8742 10.4152 24.9316 9.69497C24.9422 9.55923 24.9096 9.42363 24.8384 9.30758C24.7672 9.19153 24.6611 9.101 24.5353 9.04896C24.4095 8.99692 24.2704 8.98604 24.138 9.01789C24.0057 9.04973 23.8868 9.12267 23.7984 9.22624C23.3297 9.77599 22.7473 10.2175 22.0913 10.5202C21.4354 10.823 20.7215 10.9797 19.9991 10.9797C19.2767 10.9797 18.5628 10.823 17.9069 10.5202C17.2509 10.2175 16.6685 9.77599 16.1998 9.22624C16.1113 9.12343 15.9925 9.05118 15.8605 9.01979C15.7285 8.98839 15.5899 8.99945 15.4646 9.05139C15.3392 9.10333 15.2334 9.19349 15.1623 9.30904C15.0912 9.4246 15.0583 9.55965 15.0684 9.69497C15.1258 10.4152 15.0261 11.1393 14.7764 11.8173C14.5266 12.4952 14.1327 13.1109 13.6218 13.6218C13.1109 14.1327 12.4953 14.5266 11.8173 14.7764C11.1393 15.0261 10.4152 15.1258 9.69498 15.0684C9.55924 15.0578 9.42363 15.0904 9.30758 15.1616C9.19153 15.2328 9.10099 15.3389 9.04895 15.4647C8.99691 15.5905 8.98604 15.7296 9.01789 15.862C9.04973 15.9943 9.12266 16.1132 9.22623 16.2016C9.77598 16.6703 10.2175 17.2528 10.5202 17.9087C10.823 18.5646 10.9797 19.2785 10.9797 20.0009C10.9797 20.7233 10.823 21.4372 10.5202 22.0931C10.2175 22.749 9.77598 23.3315 9.22623 23.8002C9.12325 23.8888 9.05091 24.0078 9.01954 24.14C8.98817 24.2722 8.99937 24.4109 9.05155 24.5364C9.10373 24.6618 9.19422 24.7676 9.31009 24.8386C9.42596 24.9096 9.5613 24.9421 9.69677 24.9316C10.4169 24.8745 11.1408 24.9743 11.8185 25.2242C12.4963 25.4741 13.1117 25.868 13.6224 26.3789C14.1331 26.8898 14.5269 27.5054 14.7765 28.1832C15.0261 28.861 15.1257 29.585 15.0684 30.305C15.0578 30.4408 15.0904 30.5764 15.1616 30.6924C15.2328 30.8085 15.3389 30.899 15.4647 30.951C15.5905 31.0031 15.7296 31.014 15.862 30.9821C15.9943 30.9503 16.1132 30.8773 16.2016 30.7738C16.6703 30.224 17.2527 29.7825 17.9087 29.4798C18.5646 29.177 19.2785 29.0203 20.0009 29.0203C20.7233 29.0203 21.4372 29.177 22.0931 29.4798C22.7491 29.7825 23.3315 30.224 23.8002 30.7738C23.8886 30.8773 24.0075 30.9503 24.1398 30.9821C24.2722 31.014 24.4113 31.0031 24.5371 30.951C24.6629 30.899 24.769 30.8085 24.8402 30.6924C24.9114 30.5764 24.944 30.4408 24.9334 30.305C24.8765 29.5855 24.9762 28.8622 25.2256 28.1849C25.475 27.5077 25.8683 26.8925 26.3783 26.3818C26.8883 25.8711 27.503 25.477 28.1799 25.2266C28.8569 24.9763 29.5801 24.8756 30.2996 24.9316C30.435 24.9417 30.57 24.9088 30.6856 24.8377C30.8011 24.7666 30.8913 24.6608 30.9432 24.5354C30.9952 24.4101 31.0062 24.2715 30.9748 24.1395C30.9434 24.0075 30.8712 23.8887 30.7684 23.8002H30.7738ZM28.9383 23.7032C27.6237 23.9091 26.4083 24.527 25.4672 25.4678C24.5261 26.4085 23.9078 27.6237 23.7014 28.9383C22.6261 28.1546 21.3298 27.7323 19.9991 27.7323C18.6685 27.7323 17.3721 28.1546 16.2968 28.9383C16.0905 27.624 15.4725 26.409 14.5318 25.4682C13.591 24.5275 12.376 23.9095 11.0617 23.7032C11.8454 22.6279 12.2677 21.3315 12.2677 20.0009C12.2677 18.6703 11.8454 17.3739 11.0617 16.2986C12.3753 16.0912 13.5893 15.4724 14.529 14.5314C15.4687 13.5904 16.0858 12.3756 16.2914 11.0617C17.3668 11.8454 18.6631 12.2677 19.9937 12.2677C21.3244 12.2677 22.6207 11.8454 23.696 11.0617C23.9021 12.3766 24.5202 13.5922 25.4613 14.5333C26.4024 15.4744 27.618 16.0926 28.9329 16.2986C28.1476 17.3733 27.7244 18.6698 27.7244 20.0009C27.7244 21.3319 28.1476 22.6285 28.9329 23.7032H28.9383Z" fill="currentColor"/>
  <path d="M20.0003 13.8223C18.7784 13.8223 17.5839 14.1846 16.5679 14.8634C15.552 15.5423 14.7601 16.5072 14.2925 17.636C13.8249 18.7649 13.7026 20.0071 13.941 21.2055C14.1794 22.4039 14.7677 23.5047 15.6318 24.3688C16.4958 25.2328 17.5966 25.8212 18.795 26.0595C19.9934 26.2979 21.2356 26.1756 22.3645 25.708C23.4934 25.2404 24.4582 24.4485 25.1371 23.4326C25.8159 22.4166 26.1782 21.2221 26.1782 20.0003C26.1763 18.3623 25.5248 16.792 24.3666 15.6339C23.2085 14.4757 21.6382 13.8242 20.0003 13.8223ZM20.0003 24.8888C19.0334 24.8888 18.0883 24.6021 17.2843 24.0649C16.4804 23.5277 15.8539 22.7643 15.4839 21.871C15.1139 20.9777 15.017 19.9948 15.2057 19.0465C15.3943 18.0983 15.8599 17.2272 16.5435 16.5436C17.2272 15.8599 18.0983 15.3943 19.0466 15.2057C19.9948 15.017 20.9777 15.1139 21.871 15.4839C22.7643 15.8539 23.5277 16.4804 24.0649 17.2843C24.6021 18.0883 24.8888 19.0334 24.8888 20.0003C24.8873 21.2963 24.3718 22.5389 23.4554 23.4554C22.5389 24.3718 21.2963 24.8873 20.0003 24.8888Z" fill="currentColor"/>
</svg>
