<svg width="24" height="24" viewBox="0 0 24 24" fill="none" xmlns="http://www.w3.org/2000/svg">
<path d="M17.7725 12.0225L21.7525 8.0425C22.1425 7.6525 22.1425 7.0225 21.7525 6.6325L17.4125 2.2925C17.0225 1.9025 16.3925 1.9025 16.0025 2.2925L12.0225 6.2725L8.0425 2.2925C7.8425 2.1025 7.5925 2.0025 7.3325 2.0025C7.0825 2.0025 6.8225 2.1025 6.6325 2.2925L2.2925 6.6325C1.9025 7.0225 1.9025 7.6525 2.2925 8.0425L6.2725 12.0225L2.2925 16.0025C1.9025 16.3925 1.9025 17.0225 2.2925 17.4125L6.6325 21.7525C7.0225 22.1425 7.6525 22.1425 8.0425 21.7525L12.0225 17.7725L16.0025 21.7525C16.2025 21.9525 16.4525 22.0425 16.7125 22.0425C16.9725 22.0425 17.2225 21.9425 17.4225 21.7525L21.7625 17.4125C22.1525 17.0225 22.1525 16.3925 21.7625 16.0025L17.7725 12.0225ZM12.0425 9.0025C12.5925 9.0025 13.0425 9.4525 13.0425 10.0025C13.0425 10.5525 12.5925 11.0025 12.0425 11.0025C11.4925 11.0025 11.0425 10.5525 11.0425 10.0025C11.0425 9.4525 11.4925 9.0025 12.0425 9.0025ZM7.3325 10.9625L3.7025 7.3425L7.3325 3.7125L10.9525 7.3325L7.3325 10.9625ZM10.0425 13.0025C9.4925 13.0025 9.0425 12.5525 9.0425 12.0025C9.0425 11.4525 9.4925 11.0025 10.0425 11.0025C10.5925 11.0025 11.0425 11.4525 11.0425 12.0025C11.0425 12.5525 10.5925 13.0025 10.0425 13.0025ZM12.0425 15.0025C11.4925 15.0025 11.0425 14.5525 11.0425 14.0025C11.0425 13.4525 11.4925 13.0025 12.0425 13.0025C12.5925 13.0025 13.0425 13.4525 13.0425 14.0025C13.0425 14.5525 12.5925 15.0025 12.0425 15.0025ZM14.0425 11.0025C14.5925 11.0025 15.0425 11.4525 15.0425 12.0025C15.0425 12.5525 14.5925 13.0025 14.0425 13.0025C13.4925 13.0025 13.0425 12.5525 13.0425 12.0025C13.0425 11.4525 13.4925 11.0025 14.0425 11.0025ZM16.7025 20.3425L13.0725 16.7225L16.7025 13.0925L20.3225 16.7125L16.7025 20.3425Z" fill="currentColor"/>
</svg>
