<svg fill="none" height="50" viewBox="0 0 50 50" width="50" xmlns="http://www.w3.org/2000/svg" xmlns:xlink="http://www.w3.org/1999/xlink"><clipPath id="a"><path d="m10 10h30v31h-30z"/></clipPath><g clip-path="url(#a)"><path d="m38.7697 13.3496-2.3279-2.2335c-.7726-.7412-1.7868-1.1383-2.8572-1.1151-1.0704.0215-2.0681.4599-2.8076 1.2325l-1.9986 2.083c-.0298.0248-.0579.0496-.0844.0777l-13.9404 14.5344c-.0281.0298-.0513.0645-.0761.096-.0662.0761-.1241.1638-.1654.263l-4.4323 10.39c-.2151.5046.0198 1.087.5228 1.3021.1274.0546.2597.0794.3888.0794.0099 0 .0182-.0017.0281-.0017s.0182.0017.0265.0017c.1125 0 .2283-.0199.3408-.0612l10.9442-4.0022c.1969-.0364.3855-.1323.5344-.2878l11.3744-11.8592c.0297-.0248.0579-.0513.086-.0794l4.5613-4.7565c1.5287-1.5949 1.4758-4.1362-.1174-5.6665zm-17.1551 20.7965-8.8182 3.2245 3.4843-8.1647 11.3115-11.7946c.0182-.0166.038-.0298.0546-.0464l1.7984-1.8745 5.2413 5.0263zm15.8414-16.5049-1.3897 1.4493-5.2463-5.0312 1.3898-1.4493c.3739-.3904.8768-.6105 1.4162-.622.541-.01 1.0522.1886 1.441.5625l2.3278 2.2335c.8041.771.8322 2.0548.0596 2.8589z" fill="currentColor"/></g></svg>
