<svg width="50" height="50" viewBox="0 0 50 50" fill="none" xmlns="http://www.w3.org/2000/svg">
<g clip-path="url(#clip0_15497_123663)">
<path d="M35.4944 11H14.5056C12.0194 11 10 13.0194 10 15.5056V33.7167C10 36.2 12.0194 38.2222 14.5056 38.2222H35.4944C37.9778 38.2222 40 36.2028 40 33.7167V15.5056C40 13.0222 37.9806 11 35.4944 11ZM14.5056 13.2222H35.4944C36.6861 13.2222 37.6667 14.1417 37.7667 15.3083C37.7667 15.3389 37.7583 15.3694 37.7583 15.4C37.7583 16.1222 37.45 16.8111 36.9111 17.2944L24.9556 26.3417L13.0917 17.2972C12.55 16.8167 12.2417 16.1278 12.2417 15.4028C12.2417 15.3722 12.2361 15.3417 12.2333 15.3111C12.3333 14.1417 13.3139 13.2222 14.5056 13.2222ZM35.4944 36H14.5056C13.2472 36 12.2222 34.975 12.2222 33.7167V19.4278L24.2194 28.575C24.4139 28.7222 24.65 28.8028 24.8917 28.8028H25.0139C25.2556 28.8028 25.4917 28.725 25.6833 28.5778L37.7778 19.425V33.7167C37.7778 34.975 36.7528 36 35.4944 36Z" fill="currentColor"/>
</g>
<defs>
<clipPath id="clip0_15497_123663">
<rect width="30" height="27.2222" fill="white" transform="translate(10 11)"/>
</clipPath>
</defs>
</svg>
