<svg width="50" height="50" viewBox="0 0 50 50" fill="none" xmlns="http://www.w3.org/2000/svg">
<path d="M24.8161 39.1574C24.8046 39.1574 24.7931 39.1574 24.7816 39.1574C24.44 39.1459 24.1296 38.9571 23.9605 38.6598L21.0751 33.587H16.518C12.9231 33.587 10 30.6639 10 27.0707V17.5163C10 13.9231 12.9231 11 16.5163 11H33.482C37.0752 11 39.9984 13.9231 39.9984 17.5163V27.0707C39.9984 30.6639 37.0752 33.587 33.482 33.587H29.0579L25.6339 38.719C25.45 38.9932 25.1429 39.1574 24.8144 39.1574H24.8161ZM16.5163 12.9707C14.0103 12.9707 11.9707 15.0103 11.9707 17.5163V27.0707C11.9707 29.5767 14.0103 31.6164 16.5163 31.6164H21.6466C22.0013 31.6164 22.3281 31.8069 22.5038 32.114L24.8818 36.2967L27.7113 32.0549C27.8936 31.7806 28.2023 31.6164 28.5308 31.6164H33.482C35.9881 31.6164 38.0277 29.5767 38.0277 27.0707V17.5163C38.0277 15.0103 35.9881 12.9707 33.482 12.9707H16.5163Z" fill="currentColor"/>
<path d="M27.3054 20.3049H17.6689C17.1253 20.3049 16.6836 19.8631 16.6836 19.3196C16.6836 18.776 17.1253 18.3342 17.6689 18.3342H27.3038C27.8474 18.3342 28.2891 18.776 28.2891 19.3196C28.2891 19.8631 27.8474 20.3049 27.3038 20.3049H27.3054Z" fill="currentColor"/>
<path d="M23.8092 25.9113H17.6689C17.1253 25.9113 16.6836 25.4696 16.6836 24.926C16.6836 24.3824 17.1253 23.9407 17.6689 23.9407H23.8092C24.3527 23.9407 24.7945 24.3824 24.7945 24.926C24.7945 25.4696 24.3527 25.9113 23.8092 25.9113Z" fill="currentColor"/>
</svg>
