<svg width="50" height="50" viewBox="0 0 50 50" fill="none" xmlns="http://www.w3.org/2000/svg">
<g clip-path="url(#clip0_15497_123669)">
<path d="M39.9513 25.2781C39.9497 25.1193 39.9112 24.9606 39.8293 24.8118C36.8765 19.3773 31.203 16 25.0232 16C18.8434 16 13.0396 19.4492 10.1151 25.004C9.94464 25.3265 9.96971 25.7009 10.1468 25.9916C10.1652 26.0485 10.1886 26.1036 10.2187 26.1588C13.1716 31.5932 18.845 34.9706 25.0249 34.9706C31.2047 34.9706 36.945 31.5565 39.8828 26.0618C40.0165 25.8112 40.0332 25.5304 39.9513 25.2797V25.2781ZM25.0249 32.9636C19.689 32.9636 14.7825 30.1043 12.1405 25.482C14.7825 20.8563 19.6722 18.0053 25.0232 18.0053C30.3741 18.0053 35.2638 20.8646 37.9075 25.4853C35.2638 30.1093 30.3674 32.9636 25.0232 32.9636H25.0249Z" fill="currentColor"/>
<path d="M25 19.9455C21.9452 19.9455 19.4602 22.4305 19.4602 25.4853C19.4602 28.5401 21.9452 31.025 25 31.025C28.0548 31.025 30.5398 28.5401 30.5398 25.4853C30.5398 22.4305 28.0548 19.9455 25 19.9455ZM25 29.0197C23.0514 29.0197 21.4656 27.4338 21.4656 25.4853C21.4656 23.5367 23.0514 21.9508 25 21.9508C26.9485 21.9508 28.5344 23.5367 28.5344 25.4853C28.5344 27.4338 26.9485 29.0197 25 29.0197Z" fill="currentColor"/>
</g>
<defs>
<clipPath id="clip0_15497_123669">
<rect width="30" height="18.9706" fill="white" transform="translate(10 16)"/>
</clipPath>
</defs>
</svg>
