<svg width="50" height="50" viewBox="0 0 50 50" fill="none" xmlns="http://www.w3.org/2000/svg">
<path d="M29.8 40H13.6066C11.617 40 10 38.2511 10 36.1016V20.4917C10 18.3423 11.6187 16.5934 13.6066 16.5934H29.8C31.7896 16.5934 33.4066 18.3423 33.4066 20.4917V36.1033C33.4066 38.2527 31.7879 40.0016 29.8 40.0016V40ZM13.6066 18.5714C12.7082 18.5714 11.978 19.4318 11.978 20.4917V36.1033C11.978 37.1615 12.7082 38.0236 13.6066 38.0236H29.8C30.6984 38.0236 31.4286 37.1632 31.4286 36.1033V20.4917C31.4286 19.4335 30.6984 18.5714 29.8 18.5714H13.6066Z" fill="currentColor"/>
<path d="M36.3937 33.4066H35.5251C34.9795 33.4066 34.5361 32.9632 34.5361 32.4176C34.5361 31.872 34.9795 31.4286 35.5251 31.4286H36.3937C37.2921 31.4286 38.0223 30.5681 38.0223 29.5082V13.8984C38.0223 12.8401 37.2921 11.978 36.3937 11.978H20.2003C19.302 11.978 18.5718 12.8385 18.5718 13.8984V14.683C18.5718 15.2286 18.1284 15.672 17.5828 15.672C17.0372 15.672 16.5938 15.2286 16.5938 14.683V13.8984C16.5938 11.7489 18.2124 10 20.2003 10H36.3937C38.3833 10 40.0003 11.7489 40.0003 13.8984V29.5082C40.0003 31.6577 38.3817 33.4066 36.3937 33.4066Z" fill="currentColor"/>
<path d="M19.3 33.5533C19.0461 33.5533 18.7939 33.4561 18.6011 33.2632L14.8181 29.4802C14.4324 29.0945 14.4324 28.4681 14.8181 28.0824C15.2038 27.6967 15.8302 27.6967 16.2159 28.0824L19.2983 31.1648L26.6022 23.861C26.9879 23.4753 27.6142 23.4753 28 23.861C28.3857 24.2467 28.3857 24.8731 28 25.2588L19.9972 33.2616C19.8044 33.4544 19.5505 33.5517 19.2983 33.5517L19.3 33.5533Z" fill="currentColor"/>
</svg>
