<?xml version="1.0" encoding="utf-8"?>
<!-- Generator: Adobe Illustrator 26.4.1, SVG Export Plug-In . SVG Version: 6.00 Build 0)  -->
<svg version="1.1" id="Layer_1" xmlns="http://www.w3.org/2000/svg" xmlns:xlink="http://www.w3.org/1999/xlink" x="0px" y="0px"
	 viewBox="0 0 181.4 181.4" style="enable-background:new 0 0 181.4 181.4;" xml:space="preserve">
<g>
	<path d="M161.6,19.4h-16.7V6.5c0-3.3-2.7-6-6-6s-6,2.7-6,6v12.9H48.5V6.5c0-3.3-2.7-6-6-6s-6,2.7-6,6v12.9H19.8
		C8.9,19.4,0.1,30,0.1,43.1v20.2v1.4v72.9c0,23.9,19.3,43.3,43,43.3h95.2c23.7,0,43-19.4,43-43.3V67.3v-3.9V43.1
		C181.3,30,172.5,19.4,161.6,19.4z M19.8,31.4h16.7v4.3c0,3.3,2.7,6,6,6s6-2.7,6-6v-4.3h84.4v4.3c0,3.3,2.7,6,6,6s6-2.7,6-6v-4.3
		h16.7c4.1,0,7.7,5.5,7.7,11.7v13.8H12.1V43.1C12.1,36.9,15.7,31.4,19.8,31.4z M138.3,168.9H43.1c-17.1,0-31-14-31-31.3V68.9h157.2
		v68.7C169.3,154.9,155.4,168.9,138.3,168.9z" fill="currentColor"/>
	<path d="M119.8,114.3H96.7V91c0-3.3-2.7-6-6-6s-6,2.7-6,6v23.3H61.6c-3.3,0-6,2.7-6,6s2.7,6,6,6h23.1v23.3c0,3.3,2.7,6,6,6
		s6-2.7,6-6v-23.3h23.1c3.3,0,6-2.7,6-6S123.1,114.3,119.8,114.3z" fill="currentColor"/>
</g>
</svg>
