<?xml version="1.0" encoding="utf-8"?>
<!-- Generator: Adobe Illustrator 26.5.0, SVG Export Plug-In . SVG Version: 6.00 Build 0)  -->
<svg version="1.1" id="Layer_1" xmlns="http://www.w3.org/2000/svg" xmlns:xlink="http://www.w3.org/1999/xlink" x="0px" y="0px"
	 viewBox="0 0 176 154" style="enable-background:new 0 0 176 154;" xml:space="preserve">
<g>
	<path d="M82,47.7v44.3c0,3.3,2.7,6,6,6s6-2.7,6-6V47.7c0-3.3-2.7-6-6-6S82,44.4,82,47.7z" fill="currentColor"/>
	<path d="M77.4,122.9c0,5.8,4.7,10.5,10.5,10.5s10.5-4.7,10.5-10.5s-4.7-10.5-10.5-10.5S77.4,117.1,77.4,122.9z" fill="currentColor"/>
	<path d="M175.1,145L92.8,3c-1.1-1.8-3-3-5.2-3c0,0,0,0,0,0c-2.1,0-4.1,1.1-5.2,3L0.8,145c-1.1,1.8-1.1,4.1,0,6c1.1,1.8,3,3,5.2,3
		h164c2.1,0,4.1-1.1,5.2-3C176.2,149.1,176.2,146.8,175.1,145z M16.3,142L87.7,17.9L159.6,142H16.3z" fill="currentColor"/>
</g>
</svg>
