<svg width="24" height="24" viewBox="0 0 24 24" fill="none" xmlns="http://www.w3.org/2000/svg">
<path d="M12.0001 23.4284C14.6713 23.4284 17.1823 22.4375 19.0711 20.6378C20.9599 18.8385 22 16.4458 22 13.9008C22 11.3558 20.9599 8.96316 19.0711 7.1638C18.4575 6.57916 17.7204 6.29523 16.8176 6.29523C16.0673 6.29523 15.3097 6.48646 14.5079 6.68913C13.8826 6.8471 13.241 7.00837 12.5964 7.07592C12.6097 7.02589 12.6188 6.97434 12.6188 6.9205C12.6188 6.87123 12.6124 6.35872 12.4008 5.62907C14.763 5.41319 16.6172 3.51275 16.6172 1.20621V0.571289H15.9508C13.8522 0.571289 12.074 1.89878 11.4899 3.71872C11.0669 3.10538 10.4864 2.47681 9.68669 1.90538C9.39241 1.69484 8.97498 1.75199 8.75374 2.03237C8.53277 2.31275 8.59274 2.71072 8.88702 2.92126C11.2343 4.59846 11.285 6.82958 11.286 6.9205C11.286 6.97027 11.2935 7.01802 11.3047 7.0645C10.6935 6.99135 10.0855 6.83897 9.4921 6.68913C8.6903 6.48646 7.93275 6.29523 7.18239 6.29523C6.27956 6.29523 5.54254 6.57942 4.92892 7.1638C3.0401 8.96316 2 11.3558 2 13.9008C2 16.4458 3.0401 18.8385 4.92892 20.6378C6.81801 22.4375 9.32897 23.4284 12.0001 23.4284ZM15.1988 1.92265C14.9128 3.09904 13.9388 4.02704 12.7044 4.29929C12.9904 3.12291 13.9644 2.19516 15.1988 1.92265ZM5.20214 11.2684C5.34075 10.9436 5.72966 10.7869 6.07032 10.9192C6.41124 11.0513 6.57544 11.4216 6.43683 11.7464C6.14602 12.4286 5.99835 13.1534 5.99835 13.9008C5.99835 14.6617 6.15082 15.3982 6.45176 16.0903C6.7527 16.7826 7.19145 17.4063 7.75629 17.9442C8.01671 18.1921 8.01671 18.5941 7.75629 18.842C7.62621 18.966 7.45561 19.0279 7.28502 19.0279C7.11442 19.0279 6.94382 18.966 6.81374 18.842C6.12469 18.1858 5.58865 17.4234 5.22027 16.5764C4.85189 15.7294 4.6653 14.8293 4.6653 13.9008C4.66557 12.9888 4.84629 12.103 5.20214 11.2684Z" fill="currentColor"/>
</svg>
