<svg width="24" height="24" viewBox="0 0 24 24" fill="none" xmlns="http://www.w3.org/2000/svg">
<path d="M19.8303 4.07222H17.9783V2.6575C17.9783 2.29478 17.6835 2 17.3208 2C16.9581 2 16.6633 2.29478 16.6633 2.6575V4.07222H7.33669V2.6575C7.33669 2.29478 7.04192 2 6.6792 2C6.31648 2 6.0217 2.29478 6.0217 2.6575V4.07222H4.16974C2.9731 4.07222 2 5.23927 2 6.67372V17.0425C2 19.6604 4.1292 21.7896 6.74714 21.7896H17.2529C19.8708 21.7896 22 19.6604 22 17.0425V6.67372C22 5.23927 21.0269 4.07222 19.8303 4.07222ZM17.2529 20.4746H6.74714C4.85464 20.4746 3.315 18.935 3.315 17.0425V9.50644H20.685V17.0425C20.685 18.935 19.1454 20.4746 17.2529 20.4746Z" fill="currentColor"/>
<path d="M10.5061 13.4099H5.73269C5.36997 13.4099 5.0752 13.1151 5.0752 12.7524C5.0752 12.3897 5.36997 12.0949 5.73269 12.0949H10.5061C10.8689 12.0949 11.1636 12.3897 11.1636 12.7524C11.1636 13.1151 10.8689 13.4099 10.5061 13.4099Z" fill="currentColor"/>
<path d="M18.2674 13.4099H13.4939C13.1312 13.4099 12.8364 13.1151 12.8364 12.7524C12.8364 12.3897 13.1312 12.0949 13.4939 12.0949H18.2674C18.6301 12.0949 18.9249 12.3897 18.9249 12.7524C18.9249 13.1151 18.6301 13.4099 18.2674 13.4099Z" fill="currentColor"/>
<path d="M10.5061 16.2523H5.73269C5.36997 16.2523 5.0752 15.9575 5.0752 15.5948C5.0752 15.2321 5.36997 14.9373 5.73269 14.9373H10.5061C10.8689 14.9373 11.1636 15.2321 11.1636 15.5948C11.1636 15.9575 10.8689 16.2523 10.5061 16.2523Z" fill="currentColor"/>
<path d="M18.2674 16.2523H13.4939C13.1312 16.2523 12.8364 15.9575 12.8364 15.5948C12.8364 15.2321 13.1312 14.9373 13.4939 14.9373H18.2674C18.6301 14.9373 18.9249 15.2321 18.9249 15.5948C18.9249 15.9575 18.6301 16.2523 18.2674 16.2523Z" fill="currentColor"/>
</svg>
