<svg width="22" height="22" viewBox="0 0 22 22" fill="none"
  xmlns="http://www.w3.org/2000/svg">
  <g clip-path="url(#clip0_18484_10464)">
    <path d="M21.6058 14.3849C21.6082 14.3716 21.6107 14.3583 21.6131 14.345C21.6179 14.3149 21.6203 14.2859 21.6215 14.2558C21.6215 14.2425 21.6215 14.2305 21.6215 14.2172C21.6215 14.1786 21.6179 14.1412 21.6107 14.1038C21.6107 14.1002 21.6107 14.0953 21.6094 14.0917C21.601 14.0507 21.589 14.0121 21.5745 13.9723C21.5697 13.9602 21.5636 13.9482 21.5588 13.9361C21.5468 13.9084 21.5323 13.8806 21.5166 13.8553C21.5094 13.8432 21.5034 13.8324 21.4949 13.8215C21.4708 13.7853 21.4431 13.7516 21.4118 13.7202L18.039 10.345C17.7569 10.0627 17.2989 10.0627 17.0168 10.345C16.7348 10.6273 16.7348 11.0857 17.0168 11.3679L19.154 13.5067H9.11534C8.71635 13.5067 8.39209 13.8312 8.39209 14.2305C8.39209 14.6297 8.71635 14.9542 9.11534 14.9542H19.154L17.0518 17.058C16.7697 17.3403 16.7697 17.7986 17.0518 18.0809C17.1928 18.222 17.3784 18.2932 17.5629 18.2932C17.7473 18.2932 17.9329 18.222 18.074 18.0809L21.4106 14.7419C21.4106 14.7419 21.419 14.7311 21.4238 14.725C21.4467 14.7009 21.4684 14.6744 21.4877 14.6466C21.4949 14.637 21.5022 14.6273 21.5094 14.6165C21.5311 14.5815 21.5516 14.5453 21.5673 14.5067C21.5697 14.4982 21.5721 14.491 21.5745 14.4838C21.5865 14.45 21.5974 14.4174 21.6046 14.3824L21.6058 14.3849Z" fill="currentColor"/>
    <path d="M19.6133 2.28109H17.5761V0.723771C17.5761 0.324491 17.2519 0 16.8529 0C16.4539 0 16.1296 0.324491 16.1296 0.723771V2.28109H5.87036V0.723771C5.87036 0.324491 5.54611 0 5.14712 0C4.74812 0 4.42387 0.324491 4.42387 0.723771V2.28109H2.38672C1.07041 2.28109 0 3.56578 0 5.14481V16.5587C0 19.4405 2.34212 21.7843 5.22185 21.7843H16.7782C18.3416 21.7843 19.811 21.0907 20.8066 19.8832C21.061 19.5744 21.0176 19.1184 20.709 18.8639C20.4016 18.6094 19.9448 18.6528 19.6904 18.9616C18.9696 19.8362 17.9076 20.3368 16.7769 20.3368H5.22185C3.1401 20.3368 1.4465 18.6419 1.4465 16.5587V8.26306H20.5535V9.24739C20.5535 9.64667 20.8778 9.97116 21.2768 9.97116C21.6757 9.97116 22 9.64667 22 9.24739V5.14481C22 3.56578 20.9296 2.28109 19.6133 2.28109ZM2.38672 3.72863H4.42387V4.25336C4.42387 4.65264 4.74812 4.97713 5.14712 4.97713C5.54611 4.97713 5.87036 4.65264 5.87036 4.25336V3.72863H16.1284V4.25336C16.1284 4.65264 16.4527 4.97713 16.8517 4.97713C17.2507 4.97713 17.5749 4.65264 17.5749 4.25336V3.72863H19.6121C20.122 3.72863 20.5523 4.37761 20.5523 5.14481V6.81551H1.4465V5.14481C1.4465 4.37761 1.87683 3.72863 2.38672 3.72863Z" fill="currentColor"/>
  </g>
  <defs>
    <clipPath id="clip0_18484_10464">
      <rect width="22" height="21.7843" fill="white"/>
    </clipPath>
  </defs>
</svg>
