<svg width="50" height="50" viewBox="0 0 50 50" fill="none" xmlns="http://www.w3.org/2000/svg">
<path d="M39.397 18.1326L23.3491 34.2757C22.8864 34.7396 22.2599 35 21.6067 35C20.9535 35 20.3269 34.7396 19.8642 34.2757L11.8287 26.2042C11.5772 25.9794 11.3741 25.7053 11.2318 25.3987C11.0895 25.0921 11.011 24.7594 11.0011 24.4212C10.9912 24.0829 11.0501 23.7462 11.1743 23.4317C11.2984 23.1172 11.4851 22.8316 11.723 22.5923C11.9609 22.353 12.2448 22.1652 12.5575 22.0403C12.8701 21.9154 13.2048 21.8561 13.5411 21.8661C13.8773 21.876 14.208 21.955 14.5128 22.0982C14.8176 22.2414 15.0901 22.4457 15.3136 22.6986L21.5922 29.0145L35.8918 14.627C36.3623 14.2064 36.9749 13.9824 37.6042 14.0011C38.2334 14.0197 38.8318 14.2795 39.277 14.7273C39.7221 15.1751 39.9804 15.777 39.9989 16.41C40.0175 17.043 39.7948 17.6593 39.3766 18.1326H39.397Z" fill="currentColor"/>
</svg>
