<svg width="24" height="24" viewBox="0 0 24 24" fill="none" xmlns="http://www.w3.org/2000/svg">
        <path d="M16.2759 14.1196L12.9296 11.6099V6.49765C12.9296 5.98361 12.5141 5.56812 12.0001 5.56812C11.4861 5.56812 11.0706 5.98361 11.0706 6.49765V12.0747C11.0706 12.3675 11.2081 12.6436 11.4424 12.8184L15.1604 15.6069C15.3277 15.7324 15.5229 15.7928 15.7172 15.7928C16.0007 15.7928 16.2795 15.6655 16.4618 15.4201C16.7704 15.0101 16.6868 14.4273 16.2759 14.1196Z" fill="currentColor"/>
        <path d="M12 0C5.3828 0 0 5.3828 0 12C0 18.6172 5.3828 24 12 24C18.6172 24 24 18.6172 24 12C24 5.3828 18.6172 0 12 0ZM12 22.141C6.40898 22.141 1.85902 17.591 1.85902 12C1.85902 6.40898 6.40898 1.85902 12 1.85902C17.592 1.85902 22.141 6.40898 22.141 12C22.141 17.591 17.591 22.141 12 22.141Z" fill="currentColor"/>
</svg>
