<?xml version="1.0" encoding="utf-8"?>
<!-- Generator: Adobe Illustrator 26.4.1, SVG Export Plug-In . SVG Version: 6.00 Build 0)  -->
<svg version="1.1" id="Layer_1" xmlns="http://www.w3.org/2000/svg" xmlns:xlink="http://www.w3.org/1999/xlink" x="0px" y="0px"
	 viewBox="0 0 181.4 181.4" style="enable-background:new 0 0 181.4 181.4;" xml:space="preserve">
<g>
	<path d="M175.4,25.8h-53.1v-9.1c0-9.3-7.5-16.8-16.8-16.8H75.9c-9.3,0-16.8,7.5-16.8,16.8v9.1H6c-3.3,0-6,2.7-6,6s2.7,6,6,6h20.1
		v118.6c0,13.8,9.9,24.9,22,24.9h85.2c12.2,0,22-11.2,22-24.9V37.9h20c3.3,0,6-2.7,6-6S178.7,25.8,175.4,25.8z M71.1,16.8
		c0-2.6,2.1-4.8,4.8-4.8h29.7c2.6,0,4.8,2.1,4.8,4.8v9.1H71.1V16.8z M143.4,156.5c0,7-4.6,12.9-10,12.9H48.1c-5.4,0-10-5.9-10-12.9
		V37.9h105.3V156.5z" fill="currentColor"/>
	<path d="M74,141c3.3,0,6-2.7,6-6V71c0-3.3-2.7-6-6-6c-3.3,0-6,2.7-6,6v64C68,138.3,70.7,141,74,141z" fill="currentColor"/>
	<path d="M107.5,141c3.3,0,6-2.7,6-6V71c0-3.3-2.7-6-6-6c-3.3,0-6,2.7-6,6v64C101.5,138.3,104.1,141,107.5,141z" fill="currentColor"/>
</g>
</svg>
