<svg width="34" height="32" viewBox="0 0 34 32" fill="none"
  xmlns="http://www.w3.org/2000/svg">
  <path d="M32.9388 17.4475C32.3534 17.4475 31.8777 17.9232 31.8777 18.5086V29.7235H2.12235V18.4361C2.12235 17.8507 1.64659 17.3749 1.06117 17.3749C0.475759 17.3749 0 17.8507 0 18.4361V30.7846C0 31.37 0.475759 31.8458 1.06117 31.8458H32.9388C33.5242 31.8458 34 31.37 34 30.7846V18.5086C34 17.9232 33.5242 17.4475 32.9388 17.4475Z" fill="currentColor"/>
  <path d="M16.213 25.6468C16.213 25.6468 16.2289 25.6592 16.2378 25.6662C16.2732 25.6999 16.3121 25.7317 16.3527 25.76C16.3669 25.7706 16.381 25.7812 16.397 25.7918C16.4482 25.8237 16.5013 25.8537 16.5579 25.8767H16.5614C16.5614 25.8767 16.5721 25.882 16.5774 25.8838C16.6375 25.9068 16.6994 25.9262 16.7613 25.9386H16.7666C16.832 25.9528 16.8992 25.9581 16.9647 25.9581C17.0319 25.9581 17.0973 25.951 17.1628 25.9386H17.1681C17.2317 25.9245 17.2954 25.9068 17.3556 25.882C17.3591 25.882 17.3626 25.8803 17.3644 25.8785C17.4263 25.8537 17.4847 25.8219 17.5413 25.7847C17.543 25.7847 17.5448 25.783 17.5483 25.7812C17.6067 25.7423 17.6615 25.6981 17.7128 25.6468L24.5326 18.827C24.9465 18.4131 24.9465 17.7411 24.5326 17.3272C24.1188 16.9133 23.4467 16.9133 23.0328 17.3272L18.0241 22.3359V1.06117C18.0241 0.475759 17.5483 0 16.9629 0C16.3775 0 15.9017 0.475759 15.9017 1.06117V22.3359L10.9638 17.3979C10.5499 16.9841 9.87782 16.9841 9.46396 17.3979C9.0501 17.8118 9.0501 18.4839 9.46396 18.8977L16.213 25.6468Z" fill="currentColor"/>
</svg>
