<svg width="32" height="32" viewBox="0 0 32 32" fill="none" xmlns="http://www.w3.org/2000/svg">
<g clip-path="url(#clip0_13459_89019)">
<path d="M18.9831 23.366H13.0185C11.8199 23.366 10.8467 24.3506 10.8467 25.5591V29.8051C10.8467 31.0154 11.8217 32 13.0185 32H18.9831C20.1816 32 21.1567 31.0154 21.1567 29.8051V25.5591C21.1567 24.3488 20.1816 23.366 18.9831 23.366ZM19.2928 29.8068C19.2928 29.9792 19.1538 30.1196 18.9831 30.1196H13.0185C12.8478 30.1196 12.7087 29.9792 12.7087 29.8068V25.5609C12.7087 25.3885 12.8478 25.2481 13.0185 25.2481H18.9831C19.1538 25.2481 19.2928 25.3885 19.2928 25.5609V29.8068Z" fill="currentColor"/>
<path d="M25.0058 11.6342H6.99418C5.6654 11.6342 4.58301 12.7254 4.58301 14.069V18.0413C4.58301 19.3831 5.66364 20.4761 6.99418 20.4761H25.0076C26.3364 20.4761 27.4188 19.3849 27.4188 18.0413V14.069C27.4188 12.7272 26.3382 11.6342 25.0076 11.6342H25.0058ZM25.3508 18.0395C25.3508 18.2314 25.1959 18.3878 25.0058 18.3878H6.99418C6.80411 18.3878 6.64923 18.2314 6.64923 18.0395V14.0673C6.64923 13.8753 6.80411 13.7189 6.99418 13.7189H25.0076C25.1977 13.7189 25.3526 13.8753 25.3526 14.0673V18.0395H25.3508Z" fill="currentColor"/>
<path d="M2.42702 0H29.573C30.9123 0 32 1.09836 32 2.45087V6.40355C32 7.75607 30.9123 8.85443 29.573 8.85443H2.42702C1.08767 8.85443 0 7.75607 0 6.40355V2.45087C0 1.09836 1.08767 0 2.42702 0Z" fill="currentColor"/>
</g>
<defs>
<clipPath id="clip0_13459_89019">
<rect width="32" height="32" fill="currentColor"/>
</clipPath>
</defs>
</svg>

