<svg fill="none" height="31" viewBox="0 0 31 31" width="31" xmlns="http://www.w3.org/2000/svg"><g fill="currentColor"><path clip-rule="evenodd" d="m15.5 30c8.0081 0 14.5-6.4919 14.5-14.5 0-8.00813-6.4919-14.5-14.5-14.5-8.00813 0-14.5 6.49187-14.5 14.5 0 8.0081 6.49187 14.5 14.5 14.5zm0 1c8.5604 0 15.5-6.9396 15.5-15.5 0-8.56041-6.9396-15.5-15.5-15.5-8.56041 0-15.5 6.93959-15.5 15.5 0 8.5604 6.93959 15.5 15.5 15.5z" fill-rule="evenodd"/><path d="m15.5 31c2.0355 0 4.051-.4009 5.9316-1.1799 1.8805-.7789 3.5892-1.9206 5.0286-3.3599 1.4393-1.4394 2.581-3.1481 3.3599-5.0286.779-1.8806 1.1799-3.8961 1.1799-5.9316s-.4009-4.051-1.1799-5.93159c-.7789-1.88055-1.9206-3.58926-3.3599-5.02857-1.4394-1.4393-3.1481-2.58103-5.0286-3.35997-1.8806-.778951-3.8961-1.17987009-5.9316-1.17987z"/></g></svg>