<svg width="31" height="31" viewBox="0 0 31 31" fill="none" xmlns="http://www.w3.org/2000/svg">
<path fill-rule="evenodd" clip-rule="evenodd" d="M15.5 30C23.5081 30 30 23.5081 30 15.5C30 7.49187 23.5081 1 15.5 1C7.49187 1 1 7.49187 1 15.5C1 23.5081 7.49187 30 15.5 30ZM15.5 31C24.0604 31 31 24.0604 31 15.5C31 6.93959 24.0604 0 15.5 0C6.93959 0 0 6.93959 0 15.5C0 24.0604 6.93959 31 15.5 31Z" fill="currentColor"/>
<path d="M0 15.5C-2.68004e-07 18.5656 0.909059 21.5624 2.61222 24.1113C4.31538 26.6603 6.73615 28.647 9.56841 29.8201C12.4007 30.9933 15.5172 31.3002 18.5239 30.7022C21.5306 30.1041 24.2924 28.6279 26.4602 26.4602C28.6279 24.2924 30.1041 21.5306 30.7022 18.5239C31.3002 15.5172 30.9933 12.4007 29.8201 9.56841C28.647 6.73615 26.6603 4.31538 24.1113 2.61222C21.5624 0.90906 18.5656 2.31447e-07 15.5 0V15.5H0Z" fill="currentColor"/>
</svg>
