<svg width="18" height="18" viewBox="0 0 18 18" fill="none" xmlns="http://www.w3.org/2000/svg">
    <path d="M9 0C7.2199 3.27522e-08 5.47977 0.527883 3.99969 1.51689C2.51961 2.5059 1.36606 3.91161 0.684924 5.55625C0.00378582 7.20088 -0.174344 9.01057 0.173063 10.7564C0.52047 12.5023 1.37781 14.106 2.63665 15.3646C3.8955 16.6232 5.49931 17.4802 7.24525 17.8273C8.99119 18.1743 10.8008 17.9959 12.4453 17.3144C14.0899 16.633 15.4953 15.4791 16.4841 13.9989C17.4728 12.5186 18.0003 10.7784 18 8.99827C17.9995 6.61162 17.0511 4.32288 15.3634 2.63543C13.6756 0.947974 11.3867 -4.3912e-08 9 0V0ZM10.8732 13.948C10.4105 14.131 10.0411 14.2691 9.76482 14.3658C9.45437 14.4663 9.12944 14.5147 8.80319 14.5091C8.24267 14.5091 7.80645 14.3721 7.49454 14.0982C7.34508 13.9709 7.22586 13.8118 7.14553 13.6326C7.0652 13.4535 7.02577 13.2587 7.03012 13.0623C7.03009 12.8943 7.04105 12.7265 7.06292 12.5599C7.08709 12.3873 7.12508 12.1974 7.17514 11.9816L7.75523 9.93401C7.80702 9.73719 7.85019 9.55074 7.88644 9.37637C7.9193 9.21787 7.93665 9.05655 7.93823 8.89469C7.95866 8.69797 7.90031 8.50118 7.77595 8.3474C7.66718 8.24554 7.46173 8.19547 7.15615 8.19547C7.00013 8.19655 6.845 8.21921 6.69519 8.2628C6.53981 8.31114 6.40342 8.35431 6.29292 8.39747L6.44658 7.76731C6.82467 7.61193 7.18896 7.47899 7.53597 7.37023C7.85229 7.26131 8.18382 7.20305 8.51832 7.19758C9.07597 7.19758 9.50413 7.33225 9.80798 7.60157C9.9559 7.73216 10.0731 7.89381 10.1513 8.07497C10.2295 8.25613 10.2667 8.45232 10.2603 8.64953C10.2603 8.73758 10.25 8.89468 10.2292 9.11912C10.211 9.32957 10.1722 9.53773 10.1136 9.74065L9.5352 11.783C9.48859 11.9557 9.44715 12.1283 9.40917 12.3424C9.3775 12.5 9.35902 12.66 9.35393 12.8206C9.35393 13.0917 9.41263 13.2764 9.5352 13.3748C9.72352 13.4915 9.94475 13.5437 10.1654 13.5233C10.3268 13.5196 10.487 13.4946 10.6419 13.4491C10.7737 13.4154 10.903 13.3721 11.0286 13.3196L10.8732 13.948ZM10.7713 5.66104C10.5087 5.908 10.1598 6.04245 9.79935 6.03568C9.43769 6.04336 9.08745 5.90884 8.82391 5.66104C8.69519 5.54755 8.59236 5.40774 8.52237 5.25107C8.45237 5.0944 8.41684 4.92452 8.41819 4.75292C8.41702 4.58086 8.45261 4.41052 8.52258 4.25332C8.59255 4.09611 8.69528 3.95566 8.82391 3.84136C9.0869 3.5923 9.4372 3.45651 9.79935 3.46326C9.97827 3.45926 10.1562 3.49059 10.323 3.55547C10.4898 3.62035 10.6422 3.7175 10.7713 3.84136C10.8986 3.95629 11.0004 4.09665 11.0701 4.25337C11.1397 4.4101 11.1757 4.57969 11.1757 4.7512C11.1757 4.9227 11.1397 5.0923 11.0701 5.24902C11.0004 5.40575 10.8986 5.54611 10.7713 5.66104V5.66104Z" fill="currentColor"/>
</svg>