<svg width="24" height="24" viewBox="0 0 24 24" fill="none" xmlns="http://www.w3.org/2000/svg">
<g clip-path="url(#clip0)">
<path d="M11.0453 10.1263C8.81796 9.05855 6.06732 9.44746 4.22177 11.293C1.88124 13.6335 1.88124 17.4378 4.22177 19.7783C6.56229 22.1188 10.3665 22.1188 12.707 19.7783C14.5526 17.9327 14.9415 15.1821 13.8738 12.9547L16.9497 9.87879L19.7781 12.7072L22.6065 9.87879L19.7781 7.05036L21.1923 5.63615L18.3639 2.80772L11.0453 10.1263ZM9.87862 16.9499C9.1008 17.7277 7.82801 17.7277 7.05019 16.9499C6.27238 16.172 6.27238 14.8992 7.05019 14.1214C7.82801 13.3436 9.1008 13.3436 9.87862 14.1214C10.6564 14.8992 10.6564 16.172 9.87862 16.9499Z" fill="currentColor"/>
</g>
<defs>
<clipPath id="clip0">
<path d="M0 0H24V24H0V0Z" fill="currentColor"/>
</clipPath>
</defs>
</svg>
