<svg width="13" height="12" viewBox="0 0 13 12" fill="none" xmlns="http://www.w3.org/2000/svg">
<path d="M5.44278 4.40704C4.14347 3.78419 2.53893 4.01106 1.46236 5.08763C0.0970562 6.45293 0.0970562 8.67207 1.46236 10.0374C2.82767 11.4027 5.0468 11.4027 6.41211 10.0374C7.48868 8.9608 7.71554 7.35626 7.0927 6.05695L8.88698 4.26267L10.5369 5.91258L12.1868 4.26267L10.5369 2.61275L11.3619 1.78779L9.71194 0.137879L5.44278 4.40704ZM4.76219 8.38746C4.30847 8.84118 3.566 8.84118 3.11228 8.38746C2.65855 7.93373 2.65855 7.19127 3.11228 6.73754C3.566 6.28382 4.30847 6.28382 4.76219 6.73754C5.21592 7.19127 5.21592 7.93373 4.76219 8.38746Z" fill="#339FC1"/>
</svg>
