<svg width="50" height="50" viewBox="0 0 50 50" fill="none" xmlns="http://www.w3.org/2000/svg">
<g clip-path="url(#clip0_15497_123576)">
<path d="M12.0401 18.4209C11.6923 18.4209 11.3659 18.2363 11.1879 17.933C10.9934 17.6033 11.0082 17.1912 11.2241 16.8747L13.756 13.1643L12.0796 13.3176C11.534 13.3654 11.0527 12.9648 11.0033 12.4209C10.9555 11.8769 11.356 11.3956 11.9 11.3461L15.6648 11.0033C16.0456 10.9687 16.4131 11.1566 16.6077 11.4879C16.8022 11.8176 16.7873 12.2297 16.5714 12.5461L14.0395 16.2566L16.4247 16.039C16.9686 15.9912 17.45 16.3901 17.4994 16.9341C17.5489 17.478 17.1483 17.9593 16.6044 18.0088L12.1307 18.4159C12.1011 18.4192 12.0714 18.4192 12.0401 18.4192V18.4209Z" fill="currentColor"/>
<path d="M29.5077 25.789C29.4797 25.789 29.4517 25.789 29.422 25.7857L24.0863 25.3308C23.7039 25.2978 23.3759 25.0489 23.2423 24.6896C23.1088 24.3302 23.1962 23.9264 23.4649 23.6528L27.5033 19.5401L25.1066 19.3357C24.5627 19.2896 24.1588 18.8099 24.205 18.266C24.2511 17.722 24.7291 17.3182 25.2748 17.3643L29.7665 17.7467C30.1489 17.7797 30.477 18.0286 30.6105 18.3879C30.744 18.7473 30.6566 19.1511 30.3879 19.4248L26.3495 23.5374L29.5918 23.8143C30.1357 23.8605 30.5396 24.3401 30.4934 24.8841C30.4489 25.4 30.0171 25.789 29.5094 25.789H29.5077Z" fill="currentColor"/>
<path d="M37.8962 41C37.789 41 37.6802 40.9818 37.5747 40.9456L31.1874 38.745C30.8247 38.6198 30.5676 38.2967 30.5264 37.9159C30.4852 37.5351 30.6681 37.1643 30.9962 36.9648L37.6984 32.8884L34.3143 31.7231C33.7984 31.545 33.5231 30.9829 33.7011 30.4654C33.8791 29.9494 34.4429 29.6758 34.9588 29.8522L40.3341 31.7049C40.6967 31.8302 40.9538 32.1533 40.9951 32.534C41.0363 32.9148 40.8533 33.2857 40.5253 33.4851L33.8231 37.5615L38.2192 39.0763C38.7352 39.2544 39.0104 39.8165 38.8324 40.334C38.6907 40.7445 38.3082 41.0016 37.8978 41.0016L37.8962 41Z" fill="currentColor"/>
</g>
<defs>
<clipPath id="clip0_15497_123576">
<rect width="30" height="30" fill="white" transform="translate(11 11)"/>
</clipPath>
</defs>
</svg>
