<svg width="50" height="50" viewBox="0 0 50 50" fill="none" xmlns="http://www.w3.org/2000/svg">
<g clip-path="url(#clip0_15497_123552)">
<path d="M20.5824 39H12.972C11.3335 39 10 37.6665 10 36.028V28.4242C10 26.7857 11.3335 25.4522 12.972 25.4522H20.5824C22.2209 25.4522 23.5544 26.7857 23.5544 28.4242V36.028C23.5544 37.6665 22.2209 39 20.5824 39ZM12.972 27.4286C12.4231 27.4286 11.978 27.8753 11.978 28.4225V36.0264C11.978 36.5753 12.4247 37.0203 12.972 37.0203H20.5824C21.1313 37.0203 21.5764 36.5736 21.5764 36.0264V28.4225C21.5764 27.8736 21.1297 27.4286 20.5824 27.4286H12.972Z" fill="currentColor"/>
<path d="M33.2335 39H33.212C29.4802 39 26.4456 35.9637 26.4456 32.2335C26.4456 28.5033 29.4818 25.4522 33.212 25.4522H33.2335C36.9653 25.4522 40 28.4885 40 32.2187C40 35.9489 36.9637 39 33.2335 39ZM33.212 27.4286C30.5714 27.4286 28.4236 29.5764 28.4236 32.217C28.4236 34.8577 30.5714 37.0203 33.212 37.0203H33.2335C35.8741 37.0203 38.0219 34.8725 38.0219 32.2319C38.0219 29.5912 35.8741 27.4286 33.2335 27.4286H33.212Z" fill="currentColor"/>
<path d="M29.2906 22.1786H20.7291C19.7714 22.1786 18.9093 21.6874 18.4214 20.8632C17.9335 20.039 17.917 19.0467 18.3769 18.2077L22.6576 10.3929C23.1291 9.53407 24.0307 9 25.0098 9C25.989 9 26.8923 9.53407 27.362 10.3929L31.6428 18.206C32.1027 19.0451 32.0862 20.039 31.5983 20.8615C31.1104 21.6841 30.2467 22.1769 29.2906 22.1769V22.1786ZM25.0098 10.978C24.8846 10.978 24.573 11.0143 24.3917 11.344L20.1109 19.1571C19.9362 19.4753 20.0615 19.7505 20.1225 19.8544C20.1835 19.9582 20.3664 20.2005 20.7291 20.2005H29.2906C29.6532 20.2005 29.8346 19.9582 29.8972 19.8544C29.9582 19.7505 30.0835 19.4753 29.9087 19.1571L25.628 11.344C25.4467 11.0143 25.1351 10.978 25.0098 10.978Z" fill="currentColor"/>
</g>
<defs>
<clipPath id="clip0_15497_123552">
<rect width="30" height="30" fill="white" transform="translate(10 9)"/>
</clipPath>
</defs>
</svg>
