<svg width="50" height="50" viewBox="0 0 50 50" fill="none" xmlns="http://www.w3.org/2000/svg">
<g clip-path="url(#clip0_15497_123560)">
<path d="M32.0248 27.5165V22.794C34.1561 22.2187 35.7583 19.822 35.7583 16.9621C35.7583 13.6736 33.6402 10.9984 31.0358 10.9984C28.4314 10.9984 26.3132 13.6736 26.3132 16.9621C26.3132 19.822 27.9171 22.217 30.0467 22.794V27.5165C28.7446 27.5363 27.6913 28.5995 27.6913 29.9049V38.6099C27.6913 39.9286 28.7627 41 30.0814 41H31.9885C33.3072 41 34.3786 39.9286 34.3786 38.6099V29.9049C34.3786 28.5995 33.3253 27.5363 32.0231 27.5165H32.0248ZM28.2913 16.9637C28.2913 14.8027 29.5489 12.978 31.0358 12.978C32.5226 12.978 33.7803 14.8027 33.7803 16.9637C33.7803 19.1247 32.5226 20.9495 31.0358 20.9495C29.5489 20.9495 28.2913 19.1247 28.2913 16.9637ZM32.4022 38.6099C32.4022 38.8374 32.2176 39.022 31.9902 39.022H30.083C29.8555 39.022 29.6709 38.8374 29.6709 38.6099V29.9049C29.6709 29.6775 29.8555 29.4929 30.083 29.4929H31.9902C32.2176 29.4929 32.4022 29.6775 32.4022 29.9049V38.6099Z" fill="currentColor"/>
<path d="M22.4626 11C21.917 11 21.4736 11.4434 21.4736 11.989V15.8725H19.7181V11.989C19.7181 11.4434 19.2747 11 18.7291 11C18.1835 11 17.7401 11.4434 17.7401 11.989V15.8725H15.983V11.989C15.983 11.4434 15.5412 11 14.994 11C14.4467 11 14.0049 11.4434 14.0049 11.989V16.8599C14.0016 16.8945 14 16.9291 14 16.9637C14 19.8236 15.6038 22.2187 17.7335 22.7956V27.5181C16.4313 27.5379 15.378 28.6011 15.378 29.9066V38.6115C15.378 39.9302 16.4495 41.0016 17.7681 41.0016H19.6753C20.994 41.0016 22.0654 39.9302 22.0654 38.6115V29.9066C22.0654 28.6011 21.0121 27.5379 19.7099 27.5181V22.7956C21.8396 22.2203 23.4418 19.8269 23.4434 16.967C23.4467 16.9324 23.4484 16.8978 23.4484 16.8615V11.989C23.4484 11.4434 23.0049 11 22.4593 11H22.4626ZM20.089 29.9049V38.6099C20.089 38.8374 19.9044 39.022 19.6769 39.022H17.7698C17.5423 39.022 17.3577 38.8374 17.3577 38.6099V29.9049C17.3577 29.6775 17.5423 29.4929 17.7698 29.4929H19.6769C19.9044 29.4929 20.089 29.6775 20.089 29.9049ZM18.7225 20.9495C17.4434 20.9495 16.3357 19.6011 16.0505 17.8505H21.3962C21.1093 19.6011 20.0016 20.9495 18.7242 20.9495H18.7225Z" fill="currentColor"/>
</g>
<defs>
<clipPath id="clip0_15497_123560">
<rect width="21.7582" height="30" fill="white" transform="translate(14 11)"/>
</clipPath>
</defs>
</svg>
