<svg width="50" height="50" viewBox="0 0 50 50" fill="none" xmlns="http://www.w3.org/2000/svg">
<g clip-path="url(#clip0_15497_123541)">
<path d="M22.628 40H14.3154C11.9352 40 10 38.0648 10 35.6846V14.3154C10 11.9352 11.9352 10 14.3154 10H35.6846C38.0648 10 40 11.9352 40 14.3154V24.6044C40 25.15 39.5566 25.5934 39.011 25.5934C38.4654 25.5934 38.022 25.15 38.022 24.6044V14.3154C38.022 13.0264 36.9736 11.978 35.6846 11.978H14.3154C13.0264 11.978 11.978 13.0264 11.978 14.3154V35.6846C11.978 36.9736 13.0264 38.022 14.3154 38.022H22.628C23.1736 38.022 23.617 38.4654 23.617 39.011C23.617 39.5566 23.1736 40 22.628 40Z" fill="currentColor"/>
<path d="M22.9906 18.1528H16.783C16.2374 18.1528 15.7939 17.7094 15.7939 17.1638C15.7939 16.6182 16.2374 16.1747 16.783 16.1747H22.9906C23.5363 16.1747 23.9797 16.6182 23.9797 17.1638C23.9797 17.7094 23.5363 18.1528 22.9906 18.1528Z" fill="currentColor"/>
<path d="M28.2225 23.8H16.783C16.2374 23.8 15.7939 23.3566 15.7939 22.811C15.7939 22.2654 16.2374 21.822 16.783 21.822H28.2225C28.7681 21.822 29.2115 22.2654 29.2115 22.811C29.2115 23.3566 28.7681 23.8 28.2225 23.8Z" fill="currentColor"/>
<path d="M21.7659 29.4473H16.783C16.2374 29.4473 15.7939 29.0039 15.7939 28.4582C15.7939 27.9126 16.2374 27.4692 16.783 27.4692H21.7659C22.3115 27.4692 22.7549 27.9126 22.7549 28.4582C22.7549 29.0039 22.3115 29.4473 21.7659 29.4473Z" fill="currentColor"/>
<path d="M35.9121 39.9736C35.6385 39.9736 35.3649 39.9061 35.1127 39.7709L32.1423 38.1737L29.144 39.7132C28.5753 40.005 27.8764 39.9473 27.3654 39.5649L27.3291 39.5368C26.8182 39.1544 26.5676 38.5264 26.6781 37.8984L27.2484 34.6132L24.8731 32.1901C24.4264 31.7335 24.2748 31.0742 24.4792 30.4693L24.4956 30.4215C24.7017 29.8099 25.2275 29.378 25.8654 29.2907L29.2083 28.8374L30.7297 25.8275C31.0182 25.2555 31.5934 24.9011 32.2346 24.9011H32.2923C32.9352 24.9077 33.5121 25.2737 33.7923 25.8555L35.1539 28.6824L38.6599 29.4028C39.2616 29.5264 39.7495 29.9682 39.9308 30.555L39.9605 30.6489C40.1385 31.2242 39.9951 31.8555 39.5846 32.2973L37.1401 34.928L37.6149 38.0039C37.7121 38.6368 37.4484 39.2616 36.9275 39.6341L36.8945 39.6588C36.5995 39.8682 36.2583 39.9753 35.9154 39.9753L35.9121 39.9736ZM32.083 36.1907H32.2248C32.4967 36.194 32.7671 36.2632 33.0077 36.3918L35.5775 37.7731L35.1638 35.0879C35.0846 34.5753 35.2412 34.0643 35.594 33.6835L37.8506 31.2539L34.6132 30.5896C34.1006 30.4841 33.6605 30.1412 33.433 29.6698L32.2462 27.2072L30.9341 29.8017C30.8105 30.044 30.6291 30.2566 30.4083 30.4149L30.3061 30.4874C30.0835 30.6456 29.8231 30.7478 29.5528 30.7857L26.65 31.1797L28.7138 33.2846C28.8967 33.4709 29.0352 33.7 29.1143 33.9489L29.1522 34.0643C29.2363 34.3231 29.2544 34.6017 29.2083 34.8704L28.7154 37.7088L31.3099 36.3769C31.5473 36.255 31.8127 36.1907 32.0797 36.1907H32.083Z" fill="currentColor"/>
</g>
<defs>
<clipPath id="clip0_15497_123541">
<rect width="31" height="30" fill="white" transform="translate(10 10)"/>
</clipPath>
</defs>
</svg>
