<svg width="50" height="50" viewBox="0 0 50 50" fill="none" xmlns="http://www.w3.org/2000/svg">
<path d="M34.5713 25.0009L38.5448 21.0273C40.4862 19.0875 40.4862 15.9298 38.5448 13.9884L36.0117 11.4553C35.0739 10.5192 33.8247 10.0033 32.493 10.0033C31.1614 10.0033 29.9105 10.5192 28.9744 11.4569L25.0009 15.4305L21.0273 11.4569C19.0875 9.51549 15.9298 9.51549 13.9884 11.4569L11.4553 13.99C10.5192 14.9261 10.0033 16.1754 10.0033 17.5087C10.0033 18.842 10.5192 20.0912 11.4569 21.0273L15.4305 25.0009L11.4569 28.9744C9.51549 30.9142 9.51549 34.0719 11.4569 36.0133L13.99 38.5464C14.9608 39.5171 16.2347 40.0017 17.5087 40.0017C18.7826 40.0017 20.0583 39.5171 21.0273 38.5464L25.0009 34.5729L28.9744 38.5464C29.9451 39.5171 31.2191 40.0017 32.493 40.0017C33.767 40.0017 35.0426 39.5171 36.0117 38.5464L38.5448 36.0133C39.4825 35.0772 39.9984 33.8263 39.9984 32.4947C39.9984 31.163 39.4825 29.9121 38.5448 28.976L34.5713 25.0025V25.0009ZM30.3719 12.8545C31.5421 11.6844 33.444 11.6844 34.6141 12.8545L37.1472 15.3876C37.7108 15.9512 38.0207 16.7044 38.0207 17.5087C38.0207 18.3129 37.7108 19.0661 37.1472 19.6298L33.1737 23.6033L26.3984 16.828L30.3719 12.8545ZM19.6281 37.1456C19.0645 37.7092 18.3113 38.019 17.507 38.019C16.7028 38.019 15.9496 37.7092 15.386 37.1456L12.8529 34.6125C12.2892 34.0488 11.9794 33.2956 11.9794 32.4914C11.9794 31.6871 12.2892 30.9339 12.8529 30.3703L16.8264 26.3968L23.6016 33.172L19.6281 37.1456ZM37.1456 34.6125L34.6125 37.1456C33.4423 38.3157 31.5404 38.3157 30.3703 37.1456L12.8545 19.6281C11.6844 18.458 11.6844 16.5561 12.8545 15.386L15.3876 12.8529C15.9727 12.2678 16.7407 11.9761 17.5087 11.9761C18.2767 11.9761 19.0447 12.2678 19.6298 12.8529L37.1472 30.3703C38.3173 31.5404 38.3173 33.4423 37.1472 34.6125H37.1456Z" fill="currentColor"/>
<path d="M24.9876 22.944C25.2974 22.944 25.5891 22.8237 25.8083 22.6045C26.2615 22.1513 26.2615 21.4146 25.8083 20.963C25.5891 20.7438 25.2974 20.6235 24.9876 20.6235C24.6777 20.6235 24.386 20.7438 24.1668 20.963C23.9476 21.1822 23.8257 21.4739 23.8257 21.7838C23.8257 22.0936 23.946 22.3853 24.1652 22.6045C24.3844 22.8237 24.6761 22.9457 24.9859 22.9457L24.9876 22.944ZM24.9876 21.7755C24.9876 21.7755 24.9925 21.7755 24.9925 21.7772H24.981C24.981 21.7772 24.9843 21.7755 24.9859 21.7755H24.9876Z" fill="currentColor"/>
<path d="M21.7837 23.8257C21.4739 23.8257 21.1822 23.9461 20.963 24.1652C20.7438 24.3844 20.6218 24.6762 20.6218 24.986C20.6218 25.2958 20.7421 25.5875 20.9613 25.8067C21.1805 26.0259 21.4722 26.1479 21.7821 26.1479C22.0919 26.1479 22.3836 26.0276 22.6028 25.8084C23.056 25.3552 23.056 24.6185 22.6028 24.1669C22.3836 23.9477 22.0919 23.8274 21.7821 23.8274L21.7837 23.8257ZM21.7788 24.981C21.7788 24.981 21.7821 24.9794 21.7837 24.9794C21.7854 24.9794 21.7887 24.9794 21.7887 24.981H21.7771H21.7788Z" fill="currentColor"/>
<path d="M29.0387 24.1916C28.8195 23.9724 28.5278 23.8521 28.2179 23.8521C27.9081 23.8521 27.6164 23.9724 27.3972 24.1916C27.178 24.4108 27.056 24.7025 27.056 25.0124C27.056 25.3222 27.1763 25.6139 27.3955 25.8331C27.6147 26.0523 27.9064 26.1743 28.2163 26.1743C28.5261 26.1743 28.8178 26.0539 29.037 25.8348C29.2562 25.6156 29.3782 25.3238 29.3782 25.014C29.3782 24.7042 29.2579 24.4125 29.0387 24.1933V24.1916Z" fill="currentColor"/>
<path d="M25.8348 27.3955C25.3815 26.9422 24.6448 26.9422 24.1933 27.3955C23.9741 27.6147 23.8538 27.9064 23.8538 28.2162C23.8538 28.526 23.9741 28.8178 24.1933 29.0369C24.4125 29.2561 24.7042 29.3781 25.014 29.3781C25.3238 29.3781 25.6156 29.2578 25.8348 29.0386C26.288 28.5854 26.288 27.8487 25.8348 27.3971V27.3955Z" fill="currentColor"/>
</svg>
