<svg width="50" height="50" viewBox="0 0 50 50" fill="none" xmlns="http://www.w3.org/2000/svg">
<g clip-path="url(#clip0_15497_123568)">
<path d="M34.1698 10H15.8302C12.6159 10 10 12.6159 10 15.8302V27.4725C10 34.3808 15.6192 40 22.5275 40H27.4725C34.3808 40 40 34.3808 40 27.4725V15.8302C40 12.6159 37.3841 10 34.1698 10ZM11.9813 27.5879C12.5401 27.4445 13.1154 27.3703 13.6989 27.3703H13.7286C17.5033 27.3703 20.5758 30.4412 20.5758 34.2176V34.2374C20.5758 35.4374 20.2676 36.5995 19.6791 37.628C15.2797 36.3901 12.0357 32.3665 11.9846 27.5879H11.9813ZM22.5275 38.022C22.2538 38.022 21.9835 38.0088 21.7165 37.9874C22.2654 36.8203 22.5522 35.5445 22.5522 34.2357V34.2159C22.5522 29.35 18.5929 25.3907 13.7269 25.3907H13.6973C13.117 25.3907 12.5418 25.4467 11.978 25.5588V15.8302C11.978 13.7071 13.7055 11.978 15.8302 11.978H34.1698C36.2929 11.978 38.022 13.7055 38.022 15.8302V25.5357C37.4995 25.4401 36.967 25.3907 36.4313 25.3907H36.4016C31.5357 25.3907 27.5764 29.35 27.5764 34.2159V34.2357C27.5764 35.5412 27.8615 36.8137 28.4071 37.9775C28.0989 38.0055 27.7874 38.022 27.4709 38.022H22.5258H22.5275ZM30.4346 37.5951C29.8577 36.5731 29.5544 35.4225 29.5544 34.2357V34.2159C29.5544 30.4412 32.6253 27.3687 36.4016 27.3687H36.4313C36.9703 27.3687 37.5027 27.4313 38.0203 27.5549C37.9841 32.3071 34.7896 36.3192 30.4363 37.5951H30.4346Z" fill="currentColor"/>
<path d="M32.2923 15.7939C32.2923 15.2483 31.8489 14.8049 31.3032 14.8049H18.6967C18.151 14.8049 17.7076 15.2483 17.7076 15.7939C17.7076 16.3395 18.151 16.783 18.6967 16.783H31.3032C31.8489 16.783 32.2923 16.3395 32.2923 15.7939Z" fill="currentColor"/>
<path d="M29.8956 20.0681C29.8956 19.5225 29.4522 19.0791 28.9066 19.0791H21.0934C20.5478 19.0791 20.1044 19.5225 20.1044 20.0681C20.1044 20.6137 20.5478 21.0571 21.0934 21.0571H28.9066C29.4522 21.0571 29.8956 20.6137 29.8956 20.0681Z" fill="currentColor"/>
</g>
<defs>
<clipPath id="clip0_15497_123568">
<rect width="30" height="30" fill="white" transform="translate(10 10)"/>
</clipPath>
</defs>
</svg>
