<svg width="20" height="21" viewBox="0 0 20 21" fill="none" xmlns="http://www.w3.org/2000/svg">
<path d="M10 0.586426C15.523 0.586426 20 5.13466 20 10.7455C20 16.3564 15.523 20.9047 10 20.9047C4.477 20.9047 0 16.3564 0 10.7455C0 5.13466 4.477 0.586426 10 0.586426ZM10 2.61825C7.87827 2.61825 5.84344 3.47452 4.34315 4.99868C2.84285 6.52284 2 8.59005 2 10.7455C2 12.901 2.84285 14.9682 4.34315 16.4924C5.84344 18.0166 7.87827 18.8728 10 18.8728C12.1217 18.8728 14.1566 18.0166 15.6569 16.4924C17.1571 14.9682 18 12.901 18 10.7455C18 8.59005 17.1571 6.52284 15.6569 4.99868C14.1566 3.47452 12.1217 2.61825 10 2.61825ZM10 5.66599C11.0526 5.66639 12.0782 6.00426 12.9307 6.63145C13.7832 7.25864 14.4192 8.14316 14.748 9.15899C15.0767 10.1748 15.0815 11.2702 14.7617 12.2889C14.4419 13.3077 13.8137 14.198 12.9668 14.8329C12.1198 15.4678 11.0972 15.8149 10.0446 15.8249C8.99211 15.8348 7.96332 15.5071 7.10486 14.8883C6.24639 14.2695 5.60204 13.3913 5.26361 12.3788C4.92517 11.3662 4.90991 10.271 5.22 9.24911C5.45392 9.78014 5.86027 10.2134 6.37106 10.4765C6.88184 10.7395 7.46606 10.8164 8.02595 10.6942C8.58584 10.572 9.08743 10.2581 9.44677 9.80515C9.80612 9.35217 10.0014 8.78754 10 8.20576C10.0001 7.71657 9.8612 7.23774 9.59989 6.82684C9.33858 6.41594 8.96603 6.09045 8.527 5.88949C8.993 5.74421 9.487 5.66599 10 5.66599Z" fill="black"/>
</svg>
