<?xml version="1.0" encoding="UTF-8"?>
<svg width="24" height="24" viewBox="0 0 24 24" fill="none" xmlns="http://www.w3.org/2000/svg">
<path d="M22.9835 8.74063C22.5919 8.35114 21.9588 8.35287 21.5693 8.74443L9.54801 20.8307C7.9884 22.3903 5.45536 22.3903 3.89283 20.8286C2.33149 19.2665 2.33149 16.7334 3.89302 15.1719L16.2701 2.72975C17.2438 1.75609 18.8269 1.75609 19.8034 2.73186C20.7797 3.70811 20.7797 5.29097 19.8032 6.26749L9.54989 16.5207C9.54923 16.5214 9.54867 16.5221 9.54801 16.5228C9.1574 16.9112 8.52612 16.9107 8.13629 16.5209C7.74582 16.1304 7.74582 15.4975 8.13629 15.1071L13.0855 10.1568C13.4759 9.76628 13.4759 9.13308 13.0853 8.7426C12.6948 8.35212 12.0616 8.35217 11.6711 8.74274L6.72195 13.6929C5.55047 14.8643 5.55047 16.7636 6.72204 17.9351C7.89357 19.1066 9.7928 19.1066 10.9644 17.9351C10.9657 17.9337 10.9668 17.9323 10.9681 17.9309L21.2174 7.68165C22.975 5.92408 22.975 3.07486 21.2174 1.31728C19.4596 -0.439257 16.6106 -0.439257 14.854 1.31728L2.4769 13.7595C0.136184 16.1002 0.136184 19.8993 2.47858 22.2429C4.82253 24.5856 8.62165 24.5856 10.9642 22.2431L22.9874 10.1549C23.3768 9.76328 23.3751 9.13012 22.9835 8.74063Z" fill="#12AED2"/>
</svg>
