<svg width="24" height="24" viewBox="0 0 24 24" fill="none" xmlns="http://www.w3.org/2000/svg">
<g clip-path="url(#clip0)">
<path d="M12.0005 7.72932C14.0436 7.72932 15.6984 6.0745 15.6984 4.03141C15.6984 1.98831 14.0436 0.333496 12.0005 0.333496C9.95744 0.333496 8.30263 1.98831 8.30263 4.03141C8.30263 6.0745 9.95744 7.72932 12.0005 7.72932ZM9.53218 19.2298L10.7155 17.7507L7.87274 15.384L5.75107 18.0372C5.22412 18.6936 5.21025 19.6273 5.71409 20.3022L7.93284 23.2605C8.298 23.7459 8.85269 24.0001 9.412 24.0001C9.79566 24.0001 10.1886 23.8799 10.5214 23.6303C11.3395 23.0202 11.5013 21.86 10.8912 21.0418L9.53218 19.2298ZM16.1283 15.384L13.2856 17.7507L14.4689 19.2298L13.1099 21.0418C12.4998 21.86 12.6615 23.0202 13.4797 23.6303C13.8125 23.8799 14.2008 24.0001 14.5891 24.0001C15.153 24.0001 15.7077 23.7459 16.0682 23.2605L18.287 20.3022C18.7908 19.6273 18.777 18.6936 18.25 18.0372L16.1283 15.384ZM20.5381 7.03596C19.951 6.19931 18.8001 6.00054 17.9634 6.58296L16.0867 7.90034C13.6507 9.61063 10.3457 9.61063 7.91435 7.90034L6.03766 6.58759C5.201 6.00054 4.05003 6.20393 3.46299 7.03596C2.87594 7.87261 3.07933 9.02359 3.91136 9.61063L5.78805 10.928C6.57385 11.4781 7.42437 11.8941 8.30263 12.2177V13.646H15.6984V12.2223C16.5767 11.8987 17.4272 11.4827 18.213 10.9326L20.0897 9.61525C20.9264 9.02359 21.1251 7.87261 20.5381 7.03596Z" fill="currentColor"/>
</g>
<defs>
<clipPath id="clip0">
<rect x="3.125" y="0.333496" width="17.75" height="23.6666" fill="currentColor"/>
</clipPath>
</defs>
</svg>
