<svg width="16" height="16" viewBox="0 0 16 16" fill="none" xmlns="http://www.w3.org/2000/svg">
    <path d="M7.99992 1.33334C4.31992 1.33334 1.33325 4.32001 1.33325 8.00001C1.33325 11.68 4.31992 14.6667 7.99992 14.6667C11.6799 14.6667 14.6666 11.68 14.6666 8.00001C14.6666 4.32001 11.6799 1.33334 7.99992 1.33334Z" stroke="currentColor" stroke-width="0.8"/>
    <path d="M7.45349 9.5165C7.30682 9.5165 7.20015 9.4965 7.13349 9.4565C7.06682 9.40983 7.03349 9.33983 7.03349 9.2465C7.03349 8.77316 7.28015 8.2665 7.77349 7.7265L8.00349 7.4765C8.23682 7.22316 8.40682 7.02316 8.51349 6.8765C8.62015 6.72316 8.67349 6.5765 8.67349 6.4365C8.67349 5.9565 8.36682 5.7165 7.75349 5.7165C7.58015 5.7165 7.42349 5.73983 7.28349 5.7865C7.14349 5.8265 6.98682 5.88316 6.81349 5.9565C6.70682 6.00983 6.63349 6.0365 6.59349 6.0365C6.52682 6.0365 6.45015 5.99316 6.36349 5.9065C6.28349 5.81316 6.21349 5.70983 6.15349 5.5965C6.10015 5.4765 6.07349 5.38316 6.07349 5.3165C6.07349 5.08983 6.26349 4.91316 6.64349 4.7865C7.03015 4.65983 7.44682 4.5965 7.89349 4.5965C8.55349 4.5965 9.07349 4.7565 9.45349 5.0765C9.83349 5.3965 10.0235 5.8165 10.0235 6.3365C10.0235 6.68316 9.94015 6.98316 9.77349 7.2365C9.61349 7.48316 9.38349 7.74316 9.08349 8.0165C8.77015 8.30316 8.54015 8.52983 8.39349 8.6965C8.25349 8.86316 8.16349 9.05316 8.12349 9.2665C8.10349 9.35983 8.06015 9.4265 7.99349 9.4665C7.92682 9.49983 7.81682 9.5165 7.66349 9.5165H7.45349ZM7.41349 11.6865C7.06015 11.6865 6.88349 11.5898 6.88349 11.3965V10.5665C6.88349 10.3798 7.06015 10.2865 7.41349 10.2865H7.68349C8.03682 10.2865 8.21349 10.3798 8.21349 10.5665V11.3965C8.21349 11.5898 8.03682 11.6865 7.68349 11.6865H7.41349Z" fill="currentColor"/>
</svg>
