<svg width="22" height="21" viewBox="0 0 22 21" fill="none"
  xmlns="http://www.w3.org/2000/svg">
  <g clip-path="url(#clip0_11981_66109)">
    <path d="M20.8565 7.41598L12.737 0.602023C12.7274 0.593562 12.7165 0.5851 12.7056 0.577847C11.6769 -0.193361 10.2421 -0.190944 9.21582 0.583891C9.20494 0.592353 9.19528 0.599606 9.1844 0.609276L1.13505 7.41719C0.424286 7.96356 0 8.8218 0 9.71873V17.3389C0 19.3383 1.62703 20.9653 3.62637 20.9653H18.3736C20.373 20.9653 22 19.3383 22 17.3389V9.72356C22 8.8218 21.5733 7.96114 20.8565 7.41598ZM13.3523 19.5148H8.64769V13.5844C8.64769 13.0187 9.10824 12.5582 9.67396 12.5582H12.326C12.8918 12.5582 13.3523 13.0187 13.3523 13.5844V19.5148ZM20.5494 17.3389C20.5494 18.5381 19.5727 19.5148 18.3736 19.5148H14.8029V13.5844C14.8029 12.2185 13.692 11.1076 12.326 11.1076H9.67396C8.30802 11.1076 7.19714 12.2185 7.19714 13.5844V19.5148H3.62637C2.42725 19.5148 1.45055 18.5381 1.45055 17.3389V9.71873C1.45055 9.26664 1.66571 8.83389 2.02593 8.56191C2.03681 8.55345 2.04648 8.5462 2.05736 8.53653L10.1043 1.72983C10.612 1.35631 11.3119 1.3551 11.8208 1.7262L19.9378 8.53774C19.9475 8.5462 19.9584 8.55466 19.9692 8.56191C20.3331 8.83389 20.5494 9.26785 20.5494 9.72235V17.3377V17.3389Z" fill="currentColor"/>
  </g>
  <defs>
    <clipPath id="clip0_11981_66109">
      <rect width="22" height="20.9653" fill="white"/>
    </clipPath>
  </defs>
</svg>
