<svg width="22" height="22" viewBox="0 0 22 22" fill="none"
  xmlns="http://www.w3.org/2000/svg">
  <g clip-path="url(#clip0_18484_10453)">
    <path d="M19.6133 2.27944H17.5761V0.723248C17.5761 0.324256 17.2519 0 16.8529 0C16.4539 0 16.1296 0.324256 16.1296 0.723248V2.27944H5.87036V0.723248C5.87036 0.324256 5.54611 0 5.14712 0C4.74812 0 4.42387 0.324256 4.42387 0.723248V2.27944H2.38672C1.07041 2.27944 0 3.5632 0 5.14109V16.5467C0 19.4264 2.34212 21.7686 5.22185 21.7686H16.7782C19.6579 21.7686 22 19.4264 22 16.5467V5.14109C22 3.5632 20.9296 2.27944 19.6133 2.27944ZM2.38672 3.72593H4.42387V4.25029C4.42387 4.64928 4.74812 4.97354 5.14712 4.97354C5.54611 4.97354 5.87036 4.64928 5.87036 4.25029V3.72593H16.1284V4.25029C16.1284 4.64928 16.4527 4.97354 16.8517 4.97354C17.2507 4.97354 17.5749 4.64928 17.5749 4.25029V3.72593H19.6121C20.122 3.72593 20.5523 4.37445 20.5523 5.14109V6.81059H1.4465V5.14109C1.4465 4.37445 1.87683 3.72593 2.38672 3.72593ZM16.7782 20.3221H5.22185C3.1401 20.3221 1.4465 18.6285 1.4465 16.5467V8.25708H20.5535V16.5467C20.5535 18.6285 18.8599 20.3221 16.7782 20.3221Z" fill="currentColor"/>
    <path d="M15.8969 12.2541L10.1953 17.9557C10.0241 18.1269 9.79991 18.2125 9.5757 18.2125C9.35149 18.2125 9.12608 18.1269 8.95612 17.9557L6.10531 15.1049C5.76177 14.7614 5.76177 14.2081 6.10531 13.8646C6.44886 13.521 7.00214 13.521 7.34568 13.8646L9.5769 16.0958L14.6589 11.0138C15.0025 10.6702 15.5558 10.6702 15.8993 11.0138C16.2428 11.3573 16.2428 11.9106 15.8993 12.2541H15.8969Z" fill="currentColor"/>
  </g>
  <defs>
    <clipPath id="clip0_18484_10453">
      <rect width="22" height="21.7686" fill="white"/>
    </clipPath>
  </defs>
</svg>
