<svg width="22" height="22" viewBox="0 0 22 22" fill="none"
  xmlns="http://www.w3.org/2000/svg">
  <g clip-path="url(#clip0_18484_92651)">
    <path d="M19.6133 2.27944H17.5761V0.723248C17.5761 0.324256 17.2519 0 16.8529 0C16.4539 0 16.1296 0.324256 16.1296 0.723248V2.27944H5.87036V0.723248C5.87036 0.324256 5.54611 0 5.14712 0C4.74812 0 4.42387 0.324256 4.42387 0.723248V2.27944H2.38672C1.07041 2.27944 0 3.5632 0 5.14109V16.5467C0 19.4264 2.34212 21.7686 5.22185 21.7686H16.7782C19.6579 21.7686 22 19.4264 22 16.5467V5.14109C22 3.5632 20.9296 2.27944 19.6133 2.27944ZM2.38672 3.72593H4.42387V4.25029C4.42387 4.64928 4.74812 4.97354 5.14712 4.97354C5.54611 4.97354 5.87036 4.64928 5.87036 4.25029V3.72593H16.1284V4.25029C16.1284 4.64928 16.4527 4.97354 16.8517 4.97354C17.2507 4.97354 17.5749 4.64928 17.5749 4.25029V3.72593H19.6121C20.122 3.72593 20.5523 4.37445 20.5523 5.14109V6.81059H1.4465V5.14109C1.4465 4.37445 1.87683 3.72593 2.38672 3.72593ZM16.7782 20.3221H5.22185C3.1401 20.3221 1.4465 18.6285 1.4465 16.5467V8.25708H20.5535V16.5467C20.5535 18.6285 18.8599 20.3221 16.7782 20.3221Z" fill="currentColor"/>
    <path d="M9.35635 12.5507H4.10557C3.70658 12.5507 3.38232 12.2265 3.38232 11.8275C3.38232 11.4285 3.70658 11.1042 4.10557 11.1042H9.35635C9.75535 11.1042 10.0796 11.4285 10.0796 11.8275C10.0796 12.2265 9.75535 12.5507 9.35635 12.5507Z" fill="currentColor"/>
    <path d="M17.8944 12.5507H12.6437C12.2447 12.5507 11.9204 12.2265 11.9204 11.8275C11.9204 11.4285 12.2447 11.1042 12.6437 11.1042H17.8944C18.2934 11.1042 18.6177 11.4285 18.6177 11.8275C18.6177 12.2265 18.2934 12.5507 17.8944 12.5507Z" fill="currentColor"/>
    <path d="M9.35635 15.6777H4.10557C3.70658 15.6777 3.38232 15.3534 3.38232 14.9544C3.38232 14.5555 3.70658 14.2312 4.10557 14.2312H9.35635C9.75535 14.2312 10.0796 14.5555 10.0796 14.9544C10.0796 15.3534 9.75535 15.6777 9.35635 15.6777Z" fill="currentColor"/>
    <path d="M17.8944 15.6777H12.6437C12.2447 15.6777 11.9204 15.3534 11.9204 14.9544C11.9204 14.5555 12.2447 14.2312 12.6437 14.2312H17.8944C18.2934 14.2312 18.6177 14.5555 18.6177 14.9544C18.6177 15.3534 18.2934 15.6777 17.8944 15.6777Z" fill="currentColor"/>
  </g>
  <defs>
    <clipPath id="clip0_18484_92651">
      <rect width="22" height="21.7686" fill="white"/>
    </clipPath>
  </defs>
</svg>
