<svg width="34" height="36" viewBox="0 0 34 36" fill="none" xmlns="http://www.w3.org/2000/svg">
<g clip-path="url(#clip0_13459_89023)">
<path d="M11.0999 33.502H3.12087C1.40092 33.502 0 32.1003 0 30.3794V22.3957C0 20.6748 1.40092 19.2731 3.12087 19.2731H11.0999C12.8198 19.2731 14.2208 20.6748 14.2208 22.3957V30.3794C14.2208 32.1003 12.8198 33.502 11.0999 33.502ZM3.12087 21.3566C2.54697 21.3566 2.08058 21.8233 2.08058 22.3975V30.3811C2.08058 30.9553 2.54697 31.422 3.12087 31.422H11.0999C11.6738 31.422 12.1402 30.9553 12.1402 30.3811V22.3975C12.1402 21.8233 11.6738 21.3566 11.0999 21.3566H3.12087Z" fill="currentColor"/>
<path d="M28.5735 33.502H20.5945C18.8746 33.502 17.4736 32.1003 17.4736 30.3794V22.3957C17.4736 20.6748 18.8746 19.2731 20.5945 19.2731H28.5735C30.2935 19.2731 31.6944 20.6748 31.6944 22.3957V30.3794C31.6944 32.1003 30.2935 33.502 28.5735 33.502ZM20.5945 21.3549C20.0206 21.3549 19.5542 21.8215 19.5542 22.3957V30.3794C19.5542 30.9536 20.0206 31.4203 20.5945 31.4203H28.5735C29.1474 31.4203 29.6138 30.9536 29.6138 30.3794V22.3957C29.6138 21.8215 29.1474 21.3549 28.5735 21.3549H20.5945Z" fill="currentColor"/>
<path d="M11.0999 16.0394H3.12087C1.40092 16.0394 0 14.6376 0 12.9167V4.93481C0 3.21213 1.40092 1.81213 3.12087 1.81213H11.0999C12.8198 1.81213 14.2208 3.21387 14.2208 4.93481V12.9184C14.2208 14.6394 12.8198 16.0411 11.0999 16.0411V16.0394ZM3.12087 3.89392C2.54697 3.89392 2.08058 4.36058 2.08058 4.93481V12.9184C2.08058 13.4927 2.54697 13.9593 3.12087 13.9593H11.0999C11.6738 13.9593 12.1402 13.4927 12.1402 12.9184V4.93481C12.1402 4.36058 11.6738 3.89392 11.0999 3.89392H3.12087Z" fill="currentColor"/>
<path d="M26.5224 17.3509C26.0751 17.3509 25.6278 17.2537 25.2099 17.0594L17.973 13.6991C16.4126 12.9739 15.7312 11.1142 16.4559 9.55287L19.8126 2.31C20.1628 1.55362 20.787 0.979397 21.5707 0.691417C22.3544 0.405172 23.2005 0.439869 23.9564 0.792037L31.1933 4.15238C32.7538 4.87753 33.4352 6.73726 32.7104 8.29859L29.352 15.5397C29.0018 16.2961 28.3776 16.8703 27.5939 17.1583C27.2437 17.2867 26.8813 17.3509 26.519 17.3509H26.5224ZM22.6439 2.5841C22.5225 2.5841 22.4029 2.60492 22.285 2.64829C22.0249 2.74371 21.8151 2.93454 21.699 3.18782L18.3406 10.429C18.0996 10.9494 18.3267 11.5705 18.8468 11.8116L26.0838 15.1719C26.3369 15.2882 26.6178 15.3003 26.8796 15.2049C27.1397 15.1095 27.3495 14.9187 27.4656 14.6654L30.824 7.42425C31.065 6.9038 30.8379 6.28274 30.3178 6.0416L23.0808 2.68125C22.9421 2.61706 22.793 2.5841 22.6439 2.5841Z" fill="currentColor"/>
</g>
<defs>
<clipPath id="clip0_13459_89023">
<rect width="34" height="35.0007" fill="currentColor" transform="translate(0 0.499634)"/>
</clipPath>
</defs>
</svg>

