<svg width="24" height="24" viewBox="0 0 24 24" fill="none" xmlns="http://www.w3.org/2000/svg">
<path d="M11 15H13V6H15L12 2L9 6H11V15ZM19 9H16V11H18V20H6V11H8V9H5C4.73478 9 4.48043 9.10536 4.29289 9.29289C4.10536 9.48043 4 9.73478 4 10V21C4 21.2652 4.10536 21.5196 4.29289 21.7071C4.48043 21.8946 4.73478 22 5 22H19C19.2652 22 19.5196 21.8946 19.7071 21.7071C19.8946 21.5196 20 21.2652 20 21V10C20 9.73478 19.8946 9.48043 19.7071 9.29289C19.5196 9.10536 19.2652 9 19 9Z" fill="currentColor"/>
</svg>
