<svg width="15" height="14" viewBox="0 0 15 14" fill="currentColor" xmlns="http://www.w3.org/2000/svg">
<path d="M6.80751 0.664944C7.06371 0.0489749 7.93629 0.048977 8.19249 0.664946L9.57236 3.98254C9.68036 4.24222 9.92457 4.41964 10.2049 4.44212L13.7865 4.72926C14.4515 4.78257 14.7212 5.61245 14.2145 6.04645L11.4857 8.38397C11.2721 8.56694 11.1788 8.85402 11.2441 9.12759L12.0778 12.6226C12.2326 13.2716 11.5266 13.7845 10.9573 13.4367L7.89094 11.5638C7.65093 11.4172 7.34907 11.4172 7.10906 11.5638L4.04269 13.4367C3.47337 13.7845 2.76743 13.2716 2.92222 12.6226L3.75592 9.12758C3.82117 8.85402 3.72789 8.56694 3.5143 8.38397L0.785485 6.04645C0.278832 5.61245 0.548478 4.78257 1.21347 4.72926L4.79509 4.44212C5.07543 4.41964 5.31964 4.24222 5.42764 3.98254L6.80751 0.664944Z" fill="currentColor"/>
</svg>
