<svg width="20" height="20" viewBox="0 0 20 20" fill="none" xmlns="http://www.w3.org/2000/svg">
    <path d="M13.5632 11.7663L10.7746 9.67486V5.41462C10.7746 4.98626 10.4284 4.64001 10 4.64001C9.57167 4.64001 9.22542 4.98626 9.22542 5.41462V10.0622C9.22542 10.3062 9.34007 10.5363 9.53526 10.6819L12.6336 13.0057C12.773 13.1102 12.9357 13.1606 13.0976 13.1606C13.3339 13.1606 13.5662 13.0545 13.7181 12.85C13.9753 12.5083 13.9056 12.0227 13.5632 11.7663Z" fill="currentColor"/>
    <path d="M10 0C4.48566 0 0 4.48566 0 10C0 15.5143 4.48566 20 10 20C15.5143 20 20 15.5143 20 10C20 4.48566 15.5143 0 10 0ZM10 18.4508C5.34082 18.4508 1.54918 14.6592 1.54918 10C1.54918 5.34082 5.34082 1.54918 10 1.54918C14.66 1.54918 18.4508 5.34082 18.4508 10C18.4508 14.6592 14.6592 18.4508 10 18.4508Z" fill="currentColor"/>
</svg>
