<svg width="50" height="50" viewBox="0 0 50 50" fill="none"
  xmlns="http://www.w3.org/2000/svg">
  <g clip-path="url(#clip0_19494_75801)">
    <path d="M44.5729 5.18054H39.943V1.64375C39.943 1.2078 39.7698 0.789704 39.4616 0.481442C39.1533 0.17318 38.7352 0 38.2993 0C37.8633 0 37.4452 0.17318 37.137 0.481442C36.8287 0.789704 36.6555 1.2078 36.6555 1.64375V5.18054H13.3417V1.64375C13.3417 1.2078 13.1686 0.789704 12.8603 0.481442C12.552 0.17318 12.1339 0 11.698 0C11.262 0 10.8439 0.17318 10.5357 0.481442C10.2274 0.789704 10.0542 1.2078 10.0542 1.64375V5.18054H5.42436C2.43274 5.18054 0 8.09819 0 11.6843V37.6144C0.00507311 40.7594 1.25686 43.7741 3.48098 45.9977C5.7051 48.2213 8.72009 49.4724 11.8651 49.4767H38.1294C41.2749 49.4731 44.2906 48.2224 46.5153 45.9987C48.74 43.775 49.9922 40.7599 49.9973 37.6144V11.6843C49.9973 8.09819 47.5645 5.18054 44.5729 5.18054ZM5.42436 8.46803H10.0542V9.6707C10.0542 10.1067 10.2274 10.5247 10.5357 10.833C10.8439 11.1413 11.262 11.3144 11.698 11.3144C12.1339 11.3144 12.552 11.1413 12.8603 10.833C13.1686 10.5247 13.3417 10.1067 13.3417 9.6707V8.46803H36.6555V9.6707C36.6555 10.1067 36.8287 10.5247 37.137 10.833C37.4452 11.1413 37.8633 11.3144 38.2993 11.3144C38.7352 11.3144 39.1533 11.1413 39.4616 10.833C39.7698 10.5247 39.943 10.1067 39.943 9.6707V8.46803H44.5729C45.7317 8.46803 46.7098 9.94192 46.7098 11.6843V15.4786H3.28749V11.6843C3.28749 9.94466 4.26552 8.46803 5.42436 8.46803ZM38.1294 46.1893H11.8651C9.59154 46.1864 7.41189 45.2821 5.80398 43.6747C4.19608 42.0673 3.29112 39.8879 3.28749 37.6144V18.7661H46.7098V37.6144C46.7054 39.8882 45.7999 42.0676 44.1915 43.6749C42.5832 45.2822 40.4032 46.1864 38.1294 46.1893Z" fill="currentColor"/>
    <path d="M16.2676 27.4022H9.60224C9.16629 27.4022 8.7482 27.2291 8.43994 26.9208C8.13168 26.6125 7.9585 26.1944 7.9585 25.7585C7.9585 25.3225 8.13168 24.9044 8.43994 24.5962C8.7482 24.2879 9.16629 24.1147 9.60224 24.1147H16.2676C16.7036 24.1147 17.1217 24.2879 17.4299 24.5962C17.7382 24.9044 17.9114 25.3225 17.9114 25.7585C17.9114 26.1944 17.7382 26.6125 17.4299 26.9208C17.1217 27.2291 16.7036 27.4022 16.2676 27.4022Z" fill="currentColor"/>
    <path d="M28.3326 27.4022H21.6645C21.2285 27.4022 20.8105 27.2291 20.5022 26.9208C20.1939 26.6125 20.0208 26.1944 20.0208 25.7585C20.0208 25.3225 20.1939 24.9044 20.5022 24.5962C20.8105 24.2879 21.2285 24.1147 21.6645 24.1147H28.3326C28.7686 24.1147 29.1867 24.2879 29.4949 24.5962C29.8032 24.9044 29.9764 25.3225 29.9764 25.7585C29.9764 26.1944 29.8032 26.6125 29.4949 26.9208C29.1867 27.2291 28.7686 27.4022 28.3326 27.4022Z" fill="currentColor"/>
    <path d="M40.3949 27.4022H33.7268C33.2908 27.4022 32.8727 27.2291 32.5644 26.9208C32.2562 26.6125 32.083 26.1944 32.083 25.7585C32.083 25.3225 32.2562 24.9044 32.5644 24.5962C32.8727 24.2879 33.2908 24.1147 33.7268 24.1147H40.3949C40.8308 24.1147 41.2489 24.2879 41.5572 24.5962C41.8654 24.9044 42.0386 25.3225 42.0386 25.7585C42.0386 26.1944 41.8654 26.6125 41.5572 26.9208C41.2489 27.2291 40.8308 27.4022 40.3949 27.4022Z" fill="currentColor"/>
    <path d="M16.2676 33.5038H9.60224C9.16629 33.5038 8.7482 33.3306 8.43994 33.0224C8.13168 32.7141 7.9585 32.296 7.9585 31.8601C7.9585 31.4241 8.13168 31.006 8.43994 30.6977C8.7482 30.3895 9.16629 30.2163 9.60224 30.2163H16.2676C16.7036 30.2163 17.1217 30.3895 17.4299 30.6977C17.7382 31.006 17.9114 31.4241 17.9114 31.8601C17.9114 32.296 17.7382 32.7141 17.4299 33.0224C17.1217 33.3306 16.7036 33.5038 16.2676 33.5038Z" fill="currentColor"/>
    <path d="M28.3326 33.5038H21.6645C21.2285 33.5038 20.8105 33.3306 20.5022 33.0224C20.1939 32.7141 20.0208 32.296 20.0208 31.8601C20.0208 31.4241 20.1939 31.006 20.5022 30.6977C20.8105 30.3895 21.2285 30.2163 21.6645 30.2163H28.3326C28.7686 30.2163 29.1867 30.3895 29.4949 30.6977C29.8032 31.006 29.9764 31.4241 29.9764 31.8601C29.9764 32.296 29.8032 32.7141 29.4949 33.0224C29.1867 33.3306 28.7686 33.5038 28.3326 33.5038Z" fill="currentColor"/>
    <path d="M40.3949 33.5038H33.7268C33.2908 33.5038 32.8727 33.3306 32.5644 33.0224C32.2562 32.7141 32.083 32.296 32.083 31.8601C32.083 31.4241 32.2562 31.006 32.5644 30.6977C32.8727 30.3895 33.2908 30.2163 33.7268 30.2163H40.3949C40.8308 30.2163 41.2489 30.3895 41.5572 30.6977C41.8654 31.006 42.0386 31.4241 42.0386 31.8601C42.0386 32.296 41.8654 32.7141 41.5572 33.0224C41.2489 33.3306 40.8308 33.5038 40.3949 33.5038Z" fill="currentColor"/>
    <path d="M16.2676 39.6078H9.60224C9.16629 39.6078 8.7482 39.4346 8.43994 39.1264C8.13168 38.8181 7.9585 38.4 7.9585 37.9641C7.9585 37.5281 8.13168 37.11 8.43994 36.8018C8.7482 36.4935 9.16629 36.3203 9.60224 36.3203H16.2676C16.7036 36.3203 17.1217 36.4935 17.4299 36.8018C17.7382 37.11 17.9114 37.5281 17.9114 37.9641C17.9114 38.4 17.7382 38.8181 17.4299 39.1264C17.1217 39.4346 16.7036 39.6078 16.2676 39.6078Z" fill="currentColor"/>
    <path d="M28.3326 39.6078H21.6645C21.2285 39.6078 20.8105 39.4346 20.5022 39.1264C20.1939 38.8181 20.0208 38.4 20.0208 37.9641C20.0208 37.5281 20.1939 37.11 20.5022 36.8018C20.8105 36.4935 21.2285 36.3203 21.6645 36.3203H28.3326C28.7686 36.3203 29.1867 36.4935 29.4949 36.8018C29.8032 37.11 29.9764 37.5281 29.9764 37.9641C29.9764 38.4 29.8032 38.8181 29.4949 39.1264C29.1867 39.4346 28.7686 39.6078 28.3326 39.6078Z" fill="currentColor"/>
    <path d="M40.3949 39.6078H33.7268C33.2908 39.6078 32.8727 39.4346 32.5644 39.1264C32.2562 38.8181 32.083 38.4 32.083 37.9641C32.083 37.5281 32.2562 37.11 32.5644 36.8018C32.8727 36.4935 33.2908 36.3203 33.7268 36.3203H40.3949C40.8308 36.3203 41.2489 36.4935 41.5572 36.8018C41.8654 37.11 42.0386 37.5281 42.0386 37.9641C42.0386 38.4 41.8654 38.8181 41.5572 39.1264C41.2489 39.4346 40.8308 39.6078 40.3949 39.6078Z" fill="currentColor"/>
  </g>
  <defs>
    <clipPath id="clip0_19494_75801">
      <rect width="50" height="49.474" fill="white"/>
    </clipPath>
  </defs>
</svg>
