<svg width="27" height="27" viewBox="0 0 27 27" fill="none" xmlns="http://www.w3.org/2000/svg">
<path d="M12.2144 1.85716C12.7054 0.676556 14.3779 0.676555 14.8689 1.85716L17.5137 8.21588C17.7207 8.7136 18.1888 9.05366 18.7261 9.09674L25.5908 9.64709C26.8654 9.74927 27.3822 11.3399 26.4111 12.1717L21.1809 16.652C20.7715 17.0026 20.5928 17.5529 20.7178 18.0772L22.3157 24.7761C22.6124 26.0198 21.2594 27.0029 20.1682 26.3364L14.291 22.7466C13.8309 22.4656 13.2524 22.4656 12.7924 22.7466L6.91516 26.3364C5.82396 27.0029 4.47091 26.0198 4.76759 24.7761L6.36551 18.0772C6.49058 17.5529 6.3118 17.0026 5.90241 16.652L0.672183 12.1717C-0.298902 11.3399 0.217917 9.74927 1.49248 9.64709L8.35725 9.09674C8.89458 9.05366 9.36264 8.7136 9.56965 8.21588L12.2144 1.85716Z" fill="#FFD657"/>
</svg>
