<svg width="24" height="24" viewBox="0 0 24 24" fill="none" xmlns="http://www.w3.org/2000/svg">
<path fill-rule="evenodd" clip-rule="evenodd" d="M7.00223 0.160156H9.50668C10.0627 0.160156 10.4664 0.555789 10.4664 1.10001C10.4664 1.29418 10.3936 1.5271 10.2644 1.73266L8.73365 4.03171H9.48544C10.0578 4.03171 10.4732 4.42688 10.4732 4.97156C10.4732 5.51624 10.0578 5.91142 9.48544 5.91142H6.97375C6.40957 5.91142 6 5.51351 6 4.96473C6 4.76372 6.0755 4.52443 6.18806 4.36034L7.73323 2.03987H7.00223C6.42992 2.03987 6.01447 1.64469 6.01447 1.10001C6.01447 0.555334 6.42992 0.160156 7.00223 0.160156ZM18.6337 2.80631H15.0935C14.2845 2.80631 13.6972 3.36035 13.6972 4.12399C13.6972 4.88763 14.2845 5.44167 15.0935 5.44167H16.1268L13.9426 8.69497C13.7835 8.92502 13.6768 9.26051 13.6768 9.54232C13.6768 10.3117 14.2557 10.8696 15.0532 10.8696H18.6037C19.4127 10.8696 19.9999 10.3155 19.9999 9.5519C19.9999 8.78827 19.4127 8.23423 18.6037 8.23423H17.541L19.7047 5.01096C19.8875 4.72276 19.9904 4.39622 19.9904 4.12399C19.9904 3.36099 19.4197 2.80631 18.6337 2.80631ZM13.2089 12.1521H7.86474C6.81545 12.1521 6.08249 12.8359 6.08249 13.8155C6.08249 14.7951 6.81545 15.4789 7.86474 15.4789H10.0355L6.39817 20.8966C6.19368 21.1918 6.05245 21.6359 6.05245 21.9944C6.05245 22.9824 6.77264 23.6725 7.80467 23.6725H13.1636C14.2129 23.6725 14.9458 22.9888 14.9458 22.0091C14.9458 21.0301 14.2129 20.3457 13.1636 20.3457H10.9481L14.5547 14.9728C14.7937 14.5951 14.9305 14.1676 14.9305 13.8148C14.9311 12.8359 14.2231 12.1521 13.2089 12.1521Z" fill="currentColor"/>
</svg>
